<?xml version="1.0" encoding="UTF-8" standalone="no"?>
<!-- Created with Inkscape (http://www.inkscape.org/) -->

<svg
   xmlns:dc="http://purl.org/dc/elements/1.1/"
   xmlns:cc="http://creativecommons.org/ns#"
   xmlns:rdf="http://www.w3.org/1999/02/22-rdf-syntax-ns#"
   xmlns:svg="http://www.w3.org/2000/svg"
   xmlns="http://www.w3.org/2000/svg"
   xmlns:sodipodi="http://sodipodi.sourceforge.net/DTD/sodipodi-0.dtd"
   xmlns:inkscape="http://www.inkscape.org/namespaces/inkscape"
   width="217.04443mm"
   height="217.41687mm"
   viewBox="0 0 769.05508 770.37473"
   id="svg6319"
   version="1.1"
   inkscape:version="0.91 r13725"
   inkscape:export-filename="/home/mhaslam/Pictures/logo5.png"
   inkscape:export-xdpi="250.67123"
   inkscape:export-ydpi="250.67123"
   sodipodi:docname="logo5.svg">
  <defs
     id="defs6321" />
  <sodipodi:namedview
     id="base"
     pagecolor="#ffffff"
     bordercolor="#666666"
     borderopacity="1.0"
     inkscape:pageopacity="0.0"
     inkscape:pageshadow="2"
     inkscape:zoom="0.22627417"
     inkscape:cx="505.44776"
     inkscape:cy="93.788026"
     inkscape:document-units="px"
     inkscape:current-layer="layer1"
     showgrid="false"
     fit-margin-top="0"
     fit-margin-left="0"
     fit-margin-right="0"
     fit-margin-bottom="0"
     inkscape:window-width="1366"
     inkscape:window-height="731"
     inkscape:window-x="0"
     inkscape:window-y="312"
     inkscape:window-maximized="1" />
  <metadata
     id="metadata6324">
    <rdf:RDF>
      <cc:Work
         rdf:about="">
        <dc:format>image/svg+xml</dc:format>
        <dc:type
           rdf:resource="http://purl.org/dc/dcmitype/StillImage" />
        <dc:title></dc:title>
      </cc:Work>
    </rdf:RDF>
  </metadata>
  <g
     inkscape:label="Layer 1"
     inkscape:groupmode="layer"
     id="layer1"
     transform="translate(-10.925766,-127.42226)">
    <g
       id="g6972"
       transform="matrix(5.4354221,0,0,5.4354221,-1982.6652,-1892.4701)">
      <g
         transform="matrix(0.2871704,0,0,0.28717042,355.98429,353.62313)"
         id="g11515"
         inkscape:tile-cx="29.916897"
         inkscape:tile-cy="34.837555"
         inkscape:tile-w="15.11809"
         inkscape:tile-h="22.044087"
         inkscape:tile-x0="22.357852"
         inkscape:tile-y0="23.815512">
        <path
           style="fill:#96d200;fill-opacity:1"
           d="m 391.27605,484.06266 c 1.4149,-11.32639 0.9797,-56.10538 -0.6731,-69.25 -2.0802,-16.54439 -7.1866,-43.66646 -8.9964,-47.78393 -0.7939,-1.80616 -1.4462,-4.28116 -1.4496,-5.5 0,-1.21884 -0.6784,-3.50501 -1.5,-5.08038 -3.8778,-7.43538 -0.2727,-41.09816 6.0119,-56.13569 0.6895,-1.65 1.8342,-7.36042 2.5437,-12.68982 1.0634,-7.98722 1.0552,-11.46397 -0.046,-19.78677 -0.735,-5.55332 -1.922,-10.8679 -2.6379,-11.81018 -0.8083,-1.06393 -1.3136,-1.23949 -1.3334,-0.46323 -0.017,0.6875 -0.5032,1.25 -1.0794,1.25 -1.3649,0 -10.9523,9.58741 -10.9523,10.95238 0,0.57619 -0.4255,1.04762 -0.9455,1.04762 -0.9529,0 -2.5361,2.56223 -5.5612,9 -3.0528,6.49666 -4.8155,12.46496 -5.907,20 -1.0007,6.90909 -1.2724,7.5 -3.4476,7.5 -2.5199,0 -2.7301,-0.40756 -6.9605,-13.5 -3.3941,-10.50428 -4.7703,-13.99207 -6.0104,-15.23212 -0.6423,-0.64234 -1.1678,-1.77647 -1.1678,-2.52029 0,-0.74383 -3.8402,-5.20988 -8.5337,-9.92455 -8.3078,-8.34534 -8.5856,-8.52506 -10.5,-6.7926 -1.0815,0.97874 -1.9663,2.60979 -1.9663,3.62455 0,1.01475 -0.4415,1.84501 -0.981,1.84501 -0.5395,0 -1.2766,1.2375 -1.6379,2.75 -0.3613,1.5125 -0.9955,3.2 -1.4093,3.75 -0.4138,0.55 -2.2987,4.825 -4.1887,9.5 -5.751,14.22525 -8.4769,26.32377 -9.9138,44 -0.9843,12.1094 -0.2139,40.41185 1.1719,43.04898 0.4477,0.85194 1.1297,4.33944 1.5155,7.75 l 0.7016,6.20102 -4.4614,0 c -4.2761,0 -4.511,-0.15572 -5.6572,-3.75 -2.1642,-6.78667 -3.3996,-27.20964 -2.7957,-46.2152 0.5568,-17.51849 1.5842,-25.15038 5.2551,-39.0348 0.7997,-3.025 1.9265,-7.3 2.5039,-9.5 2.0387,-7.76852 12.125,-28.59891 15.6535,-32.32798 0.6911,-0.73038 1.7194,-2.19288 2.2852,-3.25 1.4918,-2.78745 3.767,-2.38619 9.7208,1.71438 8.3499,5.75079 19.2375,17.21564 19.2375,20.2575 0,0.60836 0.364,1.1061 0.8089,1.1061 0.4449,0 1.9074,2.47044 3.25,5.48986 1.3426,3.01943 2.7437,5.49443 3.1135,5.5 0.3698,0.006 1.2226,-1.67736 1.8949,-3.73986 0.6724,-2.0625 1.4991,-3.975 1.8371,-4.25 0.3381,-0.275 1.5104,-2.28931 2.6051,-4.47625 1.0948,-2.18694 4.578,-6.65866 7.7405,-9.93717 3.1625,-3.2785 5.75,-6.32669 5.75,-6.77375 0,-0.44706 0.675,-0.81283 1.5,-0.81283 0.825,0 1.5008,-0.3375 1.5017,-0.75 0,-1.35912 8.7262,-6.29219 10.127,-5.72709 1.541,0.62165 3.6112,5.10749 6.4506,13.97709 1.5696,4.90345 1.9085,8.83275 1.8544,21.5 -0.061,14.31344 -0.276,16.07414 -2.8062,23 -2.6408,7.2284 -3.4678,9.84976 -5.8364,18.5 -1.8078,6.60206 -1.5798,32.11481 0.3395,38 4.5596,13.98047 9.6842,37.51059 12.3053,56.5 1.1441,8.28883 1.5841,19.38831 1.5757,39.75 -0.01,21.90606 0.2691,28.26423 1.2384,28.31339 0.6875,0.0349 0.2713,0.45782 -0.9247,0.93992 -1.1961,0.48209 -3.9997,2.02857 -6.2302,3.43661 -2.2305,1.40804 -4.2006,2.56008 -4.378,2.56008 -0.1774,0 7e-4,-2.5875 0.3958,-5.75 z m -47.3737,-242.4206 c -8.5284,-4.61858 -14.7392,-15.22858 -14.7392,-25.17902 0,-5.80194 -0.075,-5.98839 -1.5567,-3.87289 -0.8562,1.22238 -2.2286,2.22251 -3.0497,2.22251 -2.6338,0 -7.2316,-2.91401 -7.8948,-5.00355 -0.9522,-3.00024 -2.4988,-1.39241 -2.4988,2.59775 0,5.24572 4.3997,11.46668 9.4742,13.39601 3.114,1.18393 3.6738,6.00979 0.6972,6.00979 -3.7722,0 -10.7492,-5.8118 -13.4972,-11.24318 -3.8255,-7.56099 -3.2105,-13.77854 1.806,-18.25682 0.6161,-0.55 2.664,-4.09151 4.551,-7.87003 1.8869,-3.77852 4.0018,-7.08916 4.6998,-7.35699 0.6979,-0.26783 1.269,-1.06567 1.269,-1.77298 0,-0.70731 0.675,-1.54504 1.5,-1.86163 0.825,-0.31658 1.51,-1.60222 1.5222,-2.85699 0.028,-2.88955 2.3957,-5.79182 7.4599,-9.14482 5.1881,-3.43504 15.3064,-3.75681 20.0179,-0.63656 1.6812,1.11344 4.7583,2.00912 7,2.03754 5.1851,0.0657 12.3808,1.99412 15.7921,4.23209 1.4836,0.9733 3.3272,3.27679 4.0968,5.11886 1.0872,2.6021 2.1623,3.49234 4.8192,3.99077 5.254,0.98566 11.7919,8.89815 11.7919,14.27115 0,3.03155 -2.9645,10.34959 -4.1925,10.34959 -1.2271,0 -0.9646,4.78492 0.3056,5.56992 0.697,0.43076 0.9409,2.76458 0.6525,6.24242 -0.4127,4.97729 -0.8661,5.89754 -4.3631,8.85618 -5.314,4.49589 -11.5443,4.47036 -9.8134,-0.0402 0.3276,-0.8537 1.4685,-1.82922 2.5354,-2.16783 4.851,-1.53964 8.9195,-9.07914 5.9048,-10.94233 -1.9773,-1.22203 -6.8485,2.38203 -7.5526,5.58794 -1.5406,7.0141 -7.3401,14.25308 -14.2384,17.7723 -5.6816,2.89856 -17.1023,2.87369 -22.4991,-0.049 z m 22.1787,-10.8657 c 4.862,-4.71842 6.4155,-8.16897 5.5178,-12.25603 -0.3716,-1.69227 -0.1207,-3.92779 0.59,-5.25571 1.8331,-3.42517 -0.6354,-11.45196 -3.5218,-11.45196 -2.3045,0 -5.5039,-3.21821 -5.5039,-5.53618 0,-3.47886 -10.1546,-4.61778 -15.2804,-1.71382 -6.444,3.65082 -9.7066,8.99123 -10.4326,17.07658 -0.7489,8.34017 1.0308,13.58501 6.3705,18.77469 4.4468,4.32174 4.6448,4.39873 11.3136,4.39873 6.5755,0 6.9177,-0.12617 10.9468,-4.0363 z m 25.4868,-28.44004 c 0.8196,-3.26574 -0.5294,-5.75424 -4.9454,-9.12246 -3.8875,-2.96512 -3.9294,-2.95336 -6.3182,1.76968 -1.6145,3.19228 -1.5886,3.60761 0.6309,10.10443 1.2731,3.72643 2.0146,7.32643 1.6478,8 -0.3668,0.67358 1.3599,-0.89293 3.8371,-3.48113 2.4772,-2.58821 4.7937,-5.85994 5.1478,-7.27052 z m -67.1301,3.53424 c 0.6066,-2.31963 0.017,-3.0579 -2.4413,-3.0579 -1.1111,0 -1.8333,0.72222 -1.8333,1.83333 0,3.52618 3.4167,4.50499 4.2746,1.22457 z m 7.7501,-6.623 c 1.2371,-3.25389 1.2255,-3.4349 -0.22,-3.4349 -0.6574,0 -2.4206,-1.1739 -3.9182,-2.60866 l -2.7228,-2.60865 -1.5819,3.05899 c -2.0413,3.94755 -2.0861,3.80747 1.4418,4.51304 1.6629,0.3326 3.2861,1.28885 3.6069,2.125 0.8736,2.27633 2.2982,1.83777 3.3942,-1.04482 z m 43.9753,-7.4349 c 0,-0.55 -0.45,-1 -1,-1 -0.55,0 -1,0.45 -1,1 0,0.55 0.45,1 1,1 0.55,0 1,-0.45 1,-1 z m -35.5737,-3.10548 c 1.7303,-1.58253 -2.5635,-5.01714 -5.8671,-4.69304 -3.5981,0.35299 -4.7403,3.46174 -2.0063,5.46089 1.7704,1.29458 6.0777,0.87451 7.8734,-0.76785 z m 35.3771,-3.36466 c 0.7234,-0.72334 -3.3318,-4.52986 -4.8257,-4.52986 -0.8678,0 -2.0052,-0.41498 -2.5277,-0.92218 -1.0417,-1.01114 -8.45,-2.5991 -8.45,-1.81123 0,1.5831 3.1549,7.64035 4.2251,8.11205 1.2355,0.54456 10.893,-0.16341 11.5783,-0.84878 z m -19.8034,-2.86319 c 0,-2.11176 -1.1106,-2.67787 -3.1315,-1.5963 -2.6435,1.41477 -2.317,2.92963 0.6315,2.92963 1.4166,0 2.5,-0.57778 2.5,-1.33333 z m -8.3198,-7.99142 c -3.094,-1.17043 -9.5086,0.0445 -12.4498,2.3581 l -2.5002,1.96665 3.0206,0 c 1.6613,0 4.3095,0.67561 5.8848,1.50135 2.7747,1.45436 2.9482,1.39959 5.5446,-1.75 l 2.6803,-3.25135 -2.1803,-0.82475 z"
           id="path4698"
           inkscape:connector-curvature="0" />
        <path
           style="fill:#008000"
           d="m 183.71075,485.00282 c -6.0921,-3.1748 -7.6357,-5.70563 -8.8893,-14.57494 -0.4009,-2.83594 -1.1681,-7.47656 -1.7049,-10.3125 -1.4096,-7.44654 -3.6578,-24.45922 -5.5131,-41.71875 -2.404,-22.36452 -2.3891,-108.20735 0.022,-125.15625 4.2393,-29.8039 10.2149,-49.28436 19.5862,-63.85104 3.5243,-5.47804 10.4624,-13.02396 11.975,-13.02396 0.5162,0 0.9385,-0.38061 0.9385,-0.84578 0,-0.77088 4.8807,-2.90422 6.6443,-2.90422 0.4068,0 2.2696,3.26953 4.1397,7.26562 3.2168,6.87368 4.2613,9.1814 7.4254,16.40625 0.7339,1.67579 2.5999,5.78907 4.1466,9.14063 4.0438,8.76251 7.2851,16.07534 10.0864,22.75679 2.1249,5.06796 4.3766,10.12392 9.1481,20.54147 1.155,2.52163 2.4917,2.45986 3.7491,-0.17326 0.9323,-1.95252 2.1852,-3.94914 8.3516,-13.30994 2.9543,-4.48453 5.3713,-8.56266 5.3713,-9.0625 0,-0.49984 0.3321,-1.04943 0.7379,-1.22131 0.4058,-0.17188 1.9879,-2.37352 3.5156,-4.89253 1.5278,-2.51902 3.521,-5.68308 4.4293,-7.03125 0.9084,-1.34818 1.9068,-3.1895 2.2187,-4.09185 0.312,-0.90234 0.8887,-1.64062 1.2816,-1.64062 0.393,0 1.2387,-1.26563 1.8794,-2.8125 0.6408,-1.54688 1.5357,-2.8125 1.9888,-2.8125 0.453,0 0.8237,-0.44433 0.8237,-0.98739 0,-0.54307 1.9367,-3.9542 4.3038,-7.5803 3.8724,-5.93217 4.5425,-6.53299 6.6862,-5.99496 2.5552,0.64133 5.4465,3.57701 6.4511,6.55017 0.3404,1.00721 1.196,2.40843 1.9014,3.11385 0.7054,0.70541 1.2825,2.09617 1.2825,3.0906 0,0.99441 0.3935,1.80803 0.8744,1.80803 0.4808,0 1.1527,0.94922 1.493,2.10937 0.3403,1.16016 1.4614,4.00782 2.4913,6.32813 3.022,6.80787 3.3171,7.66814 4.8243,14.0625 0.79,3.35156 1.9653,8.20312 2.6118,10.78125 0.6465,2.57812 1.4625,8.0625 1.8133,12.1875 0.3508,4.125 1.161,12.53093 1.8004,18.67986 1.3186,12.68084 0.8852,43.37561 -0.7159,50.69514 -0.5639,2.57812 -1.4987,6.79687 -2.0774,9.375 -0.5786,2.57812 -1.2919,5.90911 -1.5851,7.40219 -0.2931,1.49308 -1.0623,3.73496 -1.7092,4.98196 -1.1203,2.15933 -1.2326,2.00779 -2.3596,-3.18344 -1.5821,-7.28766 -1.5983,-19.32598 -0.041,-30.73992 1.5525,-11.38154 0.8255,-43.02738 -1.2496,-54.39829 -3.5345,-19.36785 -7.0647,-31.82846 -12.2017,-43.06838 -1.1925,-2.60926 -2.4194,-5.4824 -2.7265,-6.38475 -0.6501,-1.91062 -2.492,-2.21452 -2.492,-0.41115 0,0.67621 -0.8438,2.13513 -1.875,3.24206 -1.0313,1.10691 -1.875,2.21449 -1.875,2.46126 0,0.24678 -1.793,3.13667 -3.9844,6.42198 -2.1914,3.28531 -4.524,6.79244 -5.1835,7.79364 -0.6595,1.00118 -1.447,2.55862 -1.7499,3.46096 -0.303,0.90235 -0.8724,1.64063 -1.2653,1.64063 -0.393,0 -1.2387,1.26562 -1.8794,2.8125 -0.6408,1.54687 -1.5357,2.8125 -1.9888,2.8125 -0.453,0 -0.8237,0.44433 -0.8237,0.98739 0,0.54307 -1.8985,3.89562 -4.2188,7.45011 -2.3203,3.55449 -4.2187,6.90704 -4.2187,7.45011 0,0.54306 -0.3707,0.98739 -0.8238,0.98739 -0.4531,0 -1.348,1.26562 -1.9887,2.8125 -0.6408,1.54687 -1.5357,2.8125 -1.9888,2.8125 -0.453,0 -0.8237,0.43026 -0.8237,0.95613 0,0.52587 -1.1602,2.74071 -2.5782,4.92187 -1.4179,2.18116 -2.808,4.8095 -3.0891,5.84075 -0.3211,1.1783 -1.3064,1.875 -2.6515,1.875 -1.7598,0 -2.6355,-1.16681 -4.925,-6.5625 -1.5316,-3.60938 -3.6341,-8.46094 -4.6724,-10.78125 -1.0382,-2.32031 -2.4943,-5.58984 -3.2358,-7.26563 -0.7414,-1.67578 -1.9547,-4.41796 -2.6961,-6.09375 -1.3793,-3.11753 -3.7275,-8.57101 -6.5598,-15.23437 -3.3907,-7.97726 -4.9816,-11.64185 -8.3434,-19.21875 -1.2583,-2.83594 -3.2225,-7.47656 -4.365,-10.3125 -3.8191,-9.47997 -3.7499,-9.38393 -5.5026,-7.63076 -3.8243,3.82538 -10.3721,13.3221 -13.018,18.88076 -8.6258,18.12178 -12.6556,40.08952 -15.3653,83.76012 -1.0661,17.18253 -0.8732,30.2902 1.0235,69.52113 1.3309,27.52899 5.5904,62.02801 10.0289,81.2255 1.7592,7.60927 1.5328,9.24715 -1.0893,7.88069 z m 60.0078,-263.01526 c -1.5468,-0.39206 -2.2851,-0.76275 -1.6406,-0.82376 1.6764,-0.15868 1.4548,-2.92342 -0.2344,-2.92342 -0.7734,0 -1.4062,0.66124 -1.4062,1.46943 0,1.07508 -0.5661,1.3098 -2.1094,0.87464 -4.6116,-1.30034 -7.1546,-2.57765 -7.6376,-3.83616 -0.2786,-0.72622 -1.1527,-1.32041 -1.9423,-1.32041 -0.7897,0 -1.4357,-0.64605 -1.4357,-1.43567 0,-0.78963 -0.5914,-1.6626 -1.3141,-1.93994 -0.7228,-0.27735 -1.5777,-1.90922 -1.8998,-3.62638 -0.3221,-1.71715 -1.2074,-3.63803 -1.9672,-4.2686 -0.7598,-0.63057 -1.3814,-2.18468 -1.3814,-3.45358 0,-3.67651 -2.3054,-1.99235 -2.6359,1.92565 -0.3112,3.68913 -2.0516,3.86027 -2.0516,0.20174 0,-1.1955 -0.61,-2.67985 -1.3554,-3.29855 -0.9227,-0.7657 -1.1155,-1.7753 -0.604,-3.16166 0.4133,-1.12022 0.5769,-3.27192 0.3635,-4.78155 -0.2574,-1.82185 0.1033,-3.01965 1.0728,-3.56221 0.8033,-0.44958 1.4606,-1.24895 1.4606,-1.77638 0,-0.52743 -1.1116,-0.0846 -2.4702,0.98409 -1.3586,1.06867 -3.0593,1.94304 -3.7794,1.94304 -0.7201,0 -1.5521,0.63281 -1.8489,1.40625 -0.2968,0.77344 -0.9163,1.40625 -1.3768,1.40625 -0.4605,0 -0.8372,-0.63281 -0.8372,-1.40625 0,-0.77344 0.411,-1.40625 0.9134,-1.40625 1.2498,0 4.2153,-5.61204 4.3348,-8.20312 0.067,-1.46278 -0.4347,-2.10938 -1.638,-2.10938 -0.9544,0 -1.7352,-0.35994 -1.7352,-0.79988 0,-0.43994 -2.1023,-0.59789 -4.6717,-0.35099 -3.6979,0.35532 -4.7918,0.13622 -5.2473,-1.05103 -0.8074,-2.10392 1.7773,-4.3606 4.9944,-4.3606 4.0358,0 12.4265,-2.71809 12.4118,-4.02069 -0.032,-2.85289 -1.2778,-5.35614 -2.6747,-5.37516 -1.1811,-0.0161 -1.0317,-0.40513 0.6536,-1.70155 1.2917,-0.9937 3.2222,-1.52846 4.7227,-1.30824 3.7892,0.55614 7.0087,-2.38937 6.1875,-5.66106 -0.3531,-1.40707 -1.2291,-2.5583 -1.9467,-2.5583 -0.7175,0 -1.3046,-0.47579 -1.3046,-1.05732 0,-0.71327 1.2543,-0.85675 3.8548,-0.44092 2.1201,0.33903 4.3349,0.23978 4.9218,-0.22054 0.5869,-0.46032 3.9001,-1.08841 7.3626,-1.39576 3.4625,-0.30734 8.2357,-1.44273 10.6073,-2.52309 2.7597,-1.2572 5.7243,-1.86157 8.2358,-1.67895 3.7029,0.26926 3.941,0.46312 4.2258,3.44123 0.2977,3.11096 0.3542,3.14753 3.9734,2.5688 2.0194,-0.3229 5.3484,-1.46115 7.398,-2.52944 5.4861,-2.85952 7.4669,-0.85762 3.7955,3.83599 -3.1096,3.97533 -2.4834,5.625 2.1351,5.625 2.2056,0 4.9478,0.65673 6.0938,1.45941 2.3122,1.61952 2.8461,3.72132 0.7401,2.91314 -0.9139,-0.3507 -1.5357,0.35937 -1.9445,2.22058 -0.669,3.0462 -0.039,4.65687 1.8223,4.65687 0.6799,0 1.7185,0.58129 2.3082,1.29174 0.8454,1.01871 0.6445,1.40355 -0.9508,1.82071 -1.6834,0.44022 -1.9283,1.0012 -1.4599,3.34335 0.4589,2.29462 0.2054,2.92782 -1.3726,3.42867 -1.0645,0.33786 -2.3992,0.1505 -2.9661,-0.41634 -1.9429,-1.94291 -2.258,-1.01801 -2.2842,6.70374 -0.027,7.95838 -1.1155,13.56047 -3.537,18.20326 -0.762,1.46086 -1.388,3.18346 -1.3911,3.82799 0,0.64454 -0.6519,1.17188 -1.4415,1.17188 -0.7896,0 -1.6961,0.67883 -2.0145,1.50852 -1.1371,2.96329 -4.7616,5.99148 -7.1712,5.99148 -1.5147,0 -2.8355,0.74335 -3.4884,1.96335 -0.7184,1.34241 -1.6511,1.80635 -2.9491,1.46692 -1.3412,-0.35072 -2.0376,0.0361 -2.3728,1.3179 -0.2958,1.13115 -1.287,1.81433 -2.6322,1.81433 -1.1868,0 -2.7196,0.15975 -3.4063,0.355 -0.6867,0.19526 -2.5142,0.0342 -4.0611,-0.35782 z m -5.1562,-4.11563 c 0,-1.34063 -1.9393,-2.44405 -4.2954,-2.44405 -0.7313,0 -1.3296,0.60347 -1.3296,1.34105 0,1.15659 0.8194,1.53636 4.9219,2.28128 0.3867,0.0702 0.7031,-0.46001 0.7031,-1.17828 z m 15.8621,-5.23492 c 4.7327,-1.35732 9.7149,-5.15346 13.3007,-10.13433 3.1338,-4.35301 3.1809,-4.56457 3.1809,-14.2623 0,-7.58929 -0.3757,-10.54156 -1.6406,-12.89062 -0.9023,-1.67579 -2.3277,-4.35929 -3.1674,-5.96334 -1.481,-2.82906 -1.6847,-2.90409 -6.7969,-2.50371 -2.8985,0.22701 -8.0856,1.55551 -11.5268,2.95224 -7.4008,3.00382 -11.087,2.67891 -11.087,-0.97722 0,-1.95545 -0.3862,-2.25947 -2.5501,-2.00774 -2.1817,0.25379 -2.7627,1.00442 -4.0215,5.19568 -0.8092,2.69447 -2.6329,6.11145 -4.0526,7.5933 l -2.5813,2.69427 2.1496,1.4319 c 1.9104,1.27255 2.1334,2.12286 2.0032,7.64107 -0.081,3.41505 0.2359,6.20917 0.7031,6.20917 1.5998,0 0.8521,1.87483 -0.791,1.98375 -1.4219,0.0943 -1.4362,0.16317 -0.1076,0.51678 0.8432,0.22441 1.7749,1.6172 2.0704,3.0951 1.3852,6.92575 15.2901,12.18635 24.9149,9.426 z m -40.1604,-35.64663 c 0.4734,0 0.8608,-0.42187 0.8608,-0.9375 0,-1.35744 -1.2525,-1.15276 -3.3364,0.54529 -1.6653,1.35685 -1.674,1.43646 -0.1026,0.9375 0.9446,-0.29991 2.1047,-0.54529 2.5782,-0.54529 z m 4.6108,0.0294 c 0,-0.49944 -0.6328,-0.66524 -1.4063,-0.36845 -0.7734,0.2968 -1.4062,0.70543 -1.4062,0.90808 0,0.20264 0.6328,0.36845 1.4062,0.36845 0.7735,0 1.4063,-0.40864 1.4063,-0.90808 z m 25.2481,-13.715 c 0.2245,-0.22449 -0.046,-0.86257 -0.6017,-1.41797 -1.4798,-1.47983 -4.4158,-0.61789 -4.8066,1.41112 -0.2887,1.49916 0.051,1.6572 2.3311,1.0849 1.468,-0.36844 2.8527,-0.85356 3.0772,-1.07805 z"
           id="path4138"
           inkscape:connector-curvature="0" />
      </g>
      <g
         id="use19261"
         transform="matrix(0.23109763,0,0,0.22923906,237.37706,426.52933)"
         inkscape:tile-x0="24.172782"
         inkscape:tile-y0="22.504583"
         style="opacity:1"
         inkscape:tile-cx="44.138521"
         inkscape:tile-cy="42.504583"
         inkscape:tile-w="39.931477"
         inkscape:tile-h="39.999999">
        <path
           inkscape:connector-curvature="0"
           id="path23363"
           d="M 866.06356,-239.54409 A 306.12462,309.13545 0 0 0 559.93876,69.592324 306.12462,309.13545 0 0 0 866.06356,378.72872 306.12462,309.13545 0 0 0 1172.1886,69.592324 306.12462,309.13545 0 0 0 866.06356,-239.54409 Z m 0,37.14497 A 268.64534,271.99102 0 0 1 1134.7086,69.592324 268.64534,271.99102 0 0 1 866.06356,341.58374 268.64534,271.99102 0 0 1 597.41836,69.592324 268.64534,271.99102 0 0 1 866.06356,-202.39912 Z"
           style="opacity:1;fill:#ac6409;fill-opacity:1;stroke:none;stroke-width:1;stroke-linecap:round;stroke-linejoin:miter;stroke-miterlimit:4;stroke-dasharray:none;stroke-opacity:1" />
        <g
           transform="matrix(1.122248,0,0,1.1222501,-61.987214,-35.952464)"
           id="g23365">
          <path
             style="fill:#ac6409;fill-opacity:1"
             d="m 807.4528,338.7936 c -1.375,-0.2555 -2.8306,-0.9817 -3.2347,-1.6138 -0.5343,-0.8358 -0.7388,-0.8083 -0.75,0.1008 -0.019,1.5228 -4.63535,1.6738 -5.55745,0.1819 -0.3631,-0.5875 -1.3501,-0.8035 -2.1933,-0.4799 -2.0916,0.8026 -8.3782,-0.459 -7.7061,-1.5466 0.2975,-0.4814 -0.8303,-0.601 -2.5063,-0.2658 -1.7967,0.3593 -3.6458,0.1126 -4.5059,-0.6012 -0.8023,-0.6658 -1.8908,-0.9435 -2.4189,-0.6171 -0.5281,0.3264 -3.2478,0.1029 -6.0438,-0.4968 -3.5663,-0.7648 -5.0836,-1.5729 -5.0836,-2.7073 0,-1.1548 -0.3078,-1.3093 -1.0765,-0.5407 -1.3112,1.3112 -5.2612,0.4866 -16.92347,-3.5331 -11.8353,-4.0793 -11.9982,-4.1606 -12.0153,-6.0004 -0.012,-1.3231 -0.1853,-1.3746 -0.8885,-0.2644 -0.6962,1.0991 -3.4803,0.086 -13.7347,-5 -8.2176,-4.07548 -12.7565,-6.8742 -12.5706,-7.75125 0.19,-0.89644 -0.2688,-1.15789 -1.3224,-0.75359 -1.9666,0.75464 -5.7531,-1.10423 -4.9375,-2.4239 0.3229,-0.52241 -0.539,-0.94983 -1.9153,-0.94983 -1.3762,0 -3.0903,-0.82727 -3.809,-1.83837 -1.2095,-1.70163 -6.2246,-3.73756 -8.131,-3.30089 -0.4534,0.10385 -0.5374,-0.27551 -0.1866,-0.84303 0.3507,-0.56751 -0.1021,-1.31571 -1.0063,-1.66268 -1.0043,-0.38541 -1.4545,-1.35531 -1.157,-2.49294 0.5368,-2.05284 -0.9073,-2.61285 -1.5784,-0.61209 -0.2714,0.8088 -2.0636,-0.0956 -5.0779,-2.56243 -2.6449,-2.16453 -5.1599,-3.50254 -5.8185,-3.09549 -0.67,0.41412 -0.8915,0.28244 -0.5242,-0.31176 0.6346,-1.02682 -3.5175,-6.24479 -5.029,-6.32003 -0.4388,-0.0218 -2.936,-2.00809 -5.5494,-4.4139 -3.4632,-3.18804 -4.5696,-4.84879 -4.0801,-6.12434 0.4471,-1.16503 0.294,-1.51681 -0.4577,-1.05222 -1.5693,0.96991 -5.1228,-1.43498 -4.5038,-3.04806 0.2789,-0.72698 -0.1223,-1.32177 -0.8916,-1.32177 -0.7693,0 -3.3087,-1.94602 -5.6429,-4.32449 -3.1311,-3.19034 -4.0591,-4.80695 -3.5383,-6.16405 0.5081,-1.32413 0.3566,-1.62369 -0.5406,-1.06915 -1.4138,0.87373 -4.9483,-2.3776 -4.3936,-4.04157 0.1936,-0.58086 -0.7847,-1.57401 -2.1739,-2.20699 -1.4886,-0.67825 -2.5259,-1.981 -2.5259,-3.17231 0,-1.11179 -0.5625,-2.02429 -1.25,-2.02776 -0.6875,-0.003 -2.0246,-1.24098 -2.9713,-2.75 -0.9468,-1.50903 -2.2968,-3.54399 -3,-4.52215 -1.0572,-1.47039 -1.0189,-1.9441 0.2213,-2.73468 1.2412,-0.79125 1.1549,-0.96255 -0.5,-0.99289 -2.3867,-0.0437 -5.5209,-4.30149 -11.9746,-16.2671 -3.8999,-7.23052 -4.513,-9.03685 -3.4872,-10.27289 1.0337,-1.24548 0.9652,-1.39251 -0.4037,-0.86722 -1.2949,0.49693 -2.3589,-0.94538 -4.9623,-6.7271 -6.3388,-14.0771 -8.1323,-19.20627 -6.8639,-19.62909 0.6555,-0.21847 1.1917,-0.7956 1.1917,-1.28251 0,-0.4869 -0.675,-0.62626 -1.5,-0.30968 -1.0102,0.38764 -1.5,-0.0471 -1.5,-1.33138 0,-1.04885 -0.54,-2.44699 -1.2,-3.10699 -0.9333,-0.93333 -0.9175,-1.2 0.071,-1.2 0.9013,0 0.814,-0.45746 -0.3,-1.57143 -0.8643,-0.86428 -1.5714,-2.35328 -1.5714,-3.30887 0,-0.95559 -0.6378,-2.60967 -1.4173,-3.67574 -1.0003,-1.36798 -1.1114,-2.30692 -0.3776,-3.19113 0.7379,-0.88913 0.6801,-1.25283 -0.1993,-1.25283 -0.7468,0 -1.0313,-0.79467 -0.7161,-2 0.3473,-1.32806 0.031,-2 -0.9424,-2 -0.8059,0 -1.2105,-0.41239 -0.899,-0.91643 0.3115,-0.50403 0.064,-3.25957 -0.5503,-6.12341 -0.9045,-4.21781 -0.8585,-5.3706 0.2426,-6.06826 0.9759,-0.61829 0.6682,-0.86559 -1.0906,-0.87659 -1.7731,-0.0111 -2.1479,-0.31746 -1.3565,-1.10887 0.7106,-0.71055 0.7957,-2.19908 0.243,-4.25 -0.4678,-1.73604 -1.3235,-7.8526 -1.9017,-13.59235 -0.8277,-8.21651 -0.7837,-10.60579 0.207,-11.23469 0.9999,-0.63478 1.0015,-0.80192 0.01,-0.81409 -0.9438,-0.0116 -1.25,-3.69014 -1.25,-15.015308 0,-13.61321 0.1618,-15.00142 1.75,-15.01531 1.1173,-0.01 1.3372,-0.28091 0.6082,-0.75 -1.6972,-1.0921 -1.3554,-11.38675 0.4477,-13.48469 0.8606,-1.00138 1.0397,-1.75 0.4186,-1.75 -0.6597,0 -1.0146,-1.95796 -0.905,-4.99218 0.1498,-4.14476 0.4983,-4.99352 2.0529,-5 1.5232,-0.006 1.6477,-0.27862 0.6675,-1.45968 -0.9411,-1.13394 -0.9275,-2.69147 0.062,-7.11298 0.6968,-3.11363 1.7464,-6.17279 2.3325,-6.79815 0.5861,-0.62535 1.1936,-2.71201 1.35,-4.63701 0.1564,-1.925 1.0291,-6.0875 1.9392,-9.25 1.3219,-4.59294 2.0696,-5.75308 3.7157,-5.76531 1.4309,-0.0106 1.6723,-0.26183 0.7898,-0.82194 -1.5206,-0.9651 -0.9366,-5.7708098 0.6577,-5.41275 1.3769,0.30922 1.402,-0.3417998 0.1066,-2.7623498 -0.731,-1.36586 -0.6452,-2.10085 0.3134,-2.68426 0.7261,-0.44186 1.7534,-2.36089 2.2829,-4.26451002 0.6791,-2.44113998 1.6918,-3.64159998 3.4366,-4.07356998 l 2.4737,-0.61245 -2.4129,-0.79552 c -2.1009,-0.69267 -2.1979,-0.91582 -0.75,-1.72612 0.9146,-0.51183 1.6698,-1.92074 1.6782,-3.13091 0.012,-1.7872702 0.1973,-1.9187302 0.9847,-0.7003102 0.7466,1.1552002 0.9802,0.8104002 1.0165,-1.5 0.051,-3.21854 2.2263,-6.92383 3.3852,-5.76494 0.3872,0.38719 0.4132,-0.0538 0.058,-0.98005 -0.3709,-0.96651 0.1764,-2.87083 1.2845,-4.46952 1.0618,-1.53202 2.2013,-3.53806 2.5322,-4.45787 0.3985,-1.10796 1.3815,-1.52608 2.9127,-1.23891 1.2711,0.23841 1.7487,0.16598 1.0612,-0.16096 -2.1018,-0.99945 -1.4635,-2.71438 4.2741,-11.48421 3.0383,-4.64395 6.4786,-9.94144 7.6452,-11.7722 1.5213,-2.38741 2.6617,-3.18728 4.033,-2.82868 1.4214,0.37171 1.6515,0.18622 0.897,-0.72298 -0.7292,-0.87859 0.2772,-2.89794 3.5739,-7.17133 7.8274,-10.14629 13.5058,-15.52628 15.6644,-14.84119 1.264,0.40118 1.6787,0.2283 1.2226,-0.50968 -0.3796,-0.61423 0.1985,-2.24658 1.2847,-3.62744 1.2884,-1.63803 2.1217,-2.07006 2.3974,-1.24301 0.2637,0.79105 0.89,0.39425 1.6658,-1.05538 1.7793,-3.32469 5.0732,-6.45822 5.1734,-4.92164 0.045,0.6875 0.7212,-0.2125 1.5029,-2 0.8266,-1.8902 2.1548,-3.25 3.1743,-3.25 0.9934,0 2.3395,-1.32493 3.1064,-3.05743 0.7443,-1.68159 1.6083,-2.802472 1.9199,-2.490862 0.3116,0.311622 1.5896,-0.39447 2.8399,-1.56908 1.2882,-1.21023 2.9453,-1.87777 3.8242,-1.54052 0.853,0.32732 1.5509,0.12711 1.5509,-0.44492 0,-1.44392 1.5756,-2.82838 8.5,-7.46855 11.6751,-7.82382 15.4774,-9.69224 17.0567,-8.38157 1.1722,0.97285 1.4433,0.83841 1.4433,-0.71575 0,-1.4348 2.4395,-3.0814 9.75,-6.581 13.5049,-6.46494 15.2036,-7.03372 16.8716,-5.64937 1.0572,0.87738 1.3802,0.82413 1.3862,-0.2285 0,-0.75485 1.1292,-1.89261 2.5,-2.52836 1.6245,-0.75351 2.4922,-0.79792 2.4922,-0.12756 0,0.61163 0.6034,0.52758 1.4889,-0.20739 0.819,-0.67966 1.1995,-1.70429 0.8455,-2.27695 -0.3821,-0.61825 -0.1567,-0.74036 0.5549,-0.30061 0.659,0.40733 1.9399,0.13936 2.8464,-0.59549 1.1753,-0.95272 1.4327,-0.97742 0.8972,-0.0861 -1.0992,1.82967 1.4287,1.54796 2.7878,-0.31066 0.6276,-0.85837 3.00357,-1.77464 5.27987,-2.03615 3.3751,-0.38775 4.2245,-0.14591 4.6031,1.31066 0.3917,1.50683 0.4824,1.46386 0.5803,-0.2748 0.09,-1.6035 1.2253,-2.34525 5.1137,-3.34183 2.7488,-0.70449 5.2511,-1.69078 5.5607,-2.19176 0.3263,-0.52802 1.4499,-0.4362 2.6731,0.21845 1.7255,0.92344 2.3525,0.79793 3.4393,-0.68843 1.215,-1.66163 1.3292,-1.67052 1.3292,-0.10356 0,1.5384 0.2307,1.56627 2.25,0.27173 3.3137,-2.1244 13.7454,-3.23755 13.7653,-1.46887 0.01,0.91068 0.2599,1.00031 0.75002,0.26919 0.96943,-1.44618 6.63943,-2.8678 5.75943,-1.44405 -0.9063,1.46648 0.6331,1.23575 2.8225,-0.42304 1.0159,-0.76973 2.403,-1.18621 3.0824,-0.92551 0.6794,0.2607 3.0934,0.0565 5.3645,-0.45378 2.2711,-0.51028 4.0932,-0.64199 4.0492,-0.29269 -0.044,0.34931 -0.013,1.3101 0.069,2.1351 0.1216,1.22593 0.3308,1.18784 1.1448,-0.20847 0.5478,-0.93965 1.624,-1.4675 2.3915,-1.17299 0.7674,0.29451 2.443,-0.0229 3.7235,-0.70525 2.1923,-1.16833 2.2406,-1.13273 0.8282,0.61022 -1.3663,1.68589 -1.3367,1.78967 0.3318,1.16372 1.0074,-0.37797 2.0465,-0.68723 2.309,-0.68723 0.2625,0 0.1761,-0.48717 -0.1919,-1.0826 -0.368,-0.59542 0.6635,-0.39348 2.2923,0.44876 1.6465,0.85145 3.3603,1.15379 3.86,0.68096 0.4943,-0.46771 3.2613,-0.6124 6.1488,-0.32152 3.95,0.39791 5.2538,0.93067 5.2653,2.15163 0.011,1.18426 0.2296,1.28533 0.8082,0.37401 0.8367,-1.31768 3.5697,-1.18204 15.1765,0.75322 3.575,0.59608 8.2472,1.35619 10.3827,1.68913 2.6336,0.4106 4.0401,1.20747 4.3721,2.47696 0.328,1.25401 0.8616,1.56345 1.6173,0.93775 1.4709,-1.21789 12.6685,1.08416 22.6279,4.65196 4.273,1.53073 5.4244,2.37876 5.1611,3.80124 -0.2643,1.42801 -0.044,1.58721 1,0.72338 1.5244,-1.26107 7.1039,-0.52274 6.2682,0.82947 -0.301,0.48711 0.8292,0.88565 2.5117,0.88565 1.6824,0 3.059,0.45 3.059,1 0,0.55 1.0125,1.00689 2.25,1.01531 1.8194,0.0124 1.9629,0.20082 0.75,0.98469 -0.825,0.53316 -1.05,1.00971 -0.5,1.059 3.5919,0.32192 6.1351,1.15661 7,2.29746 0.55,0.7255 1.5657,1.12851 2.2572,0.89559 0.6914,-0.23293 3.3162,0.57326 5.8328,1.79153 3.5157,1.70195 4.4623,2.64834 4.0864,4.08572 -0.5142,1.9662 0.8897,2.67219 1.5249,0.76682 0.4572,-1.37156 4.232,0.70096 16.4789,9.04753 6.6985,4.5652 9.0179,6.67932 8.58,7.820492 -0.3867,1.00786 -0.1973,1.31502 0.5326,0.86387 1.6481,-1.01853 7.6507,3.14924 16.2072,11.25301 6.2462,5.91574 7.2492,7.28742 6,8.2054 -1.2674,0.93131 -1.2251,1.01359 0.2727,0.53059 1.722,-0.55531 6.1079,2.66901 5.0583,3.71863 -0.2763,0.27628 0.5394,1.05985 1.8127,1.74127 3.0836,1.65029 4.9041,3.54197 4.142,4.30403 -0.3405,0.34048 0.1451,0.61905 1.079,0.61905 0.9339,0 1.9987,0.7875 2.3662,1.75 0.3674,0.9625 1.4702,2.61365 2.4506,3.66923 1.4332,1.54318 1.5426,2.20825 0.5583,3.39425 -1.0228,1.23244 -0.8965,1.38138 0.768,0.90564 1.5281,-0.43674 2.7641,0.48533 5.3059,3.95837 1.8226,2.49026 3.724,5.60657 4.2253,6.92513 0.5013,1.31856 1.4476,2.39738 2.1029,2.39738 0.6553,0 0.9391,0.25227 0.6308,0.56061 -0.3083,0.30833 0.4042,1.60671 1.5833,2.88529 1.1792,1.27858 3.2022,4.05139 4.4956,6.16181 1.9259,3.14237 2.1388,4.17793 1.1762,5.71935 -0.8622,1.38063 -0.8689,1.69275 -0.025,1.17123 0.6327,-0.39105 2.0159,0.21805 3.0738,1.35354 2.1384,2.29531 2.5469,3.65155 0.7689,2.55268 -0.7383,-0.45628 -0.8821,-0.27271 -0.3988,0.50916 0.4156,0.67247 1.4839,0.94322 2.374,0.60165 0.8901,-0.34156 1.3294,-0.33205 0.9762,0.0211 -0.3532,0.35318 0.6623,3.15632 2.2566,6.22919 2.2052,4.25042 2.6314,5.90918 1.7812,6.93359 -0.8666,1.0442102 -0.7785,1.2164402 0.3925,0.76709 0.9172,-0.35196 1.7581,0.1297802 2.142,1.2271102 0.3477,0.99361 0.9152,2.4317 1.2612,3.19576 0.4426,0.9773 0.22,1.14871 -0.7506,0.5781 -0.7589,-0.4461 -0.5321,0.15565 0.5039,1.33722 1.036,1.18158 2.2453,1.92476 2.6874,1.65153 0.4422,-0.27324 0.5892,0.68722 0.3268,2.13434998 -0.2829,1.56012002 0.093,3.09487002 0.9221,3.77037002 0.7697,0.62658 1.9829,3.31918 2.6961,5.98357 1.0948,4.0901498 1.0777,4.9829498 -0.1097,5.7346898 -1.0836,0.68598 -0.9267,0.89386 0.6836,0.90566 2.1698,0.0159 2.2721,0.2493 5.7027,13.01531 4.0495,15.06912 4.1042,15.3677 2.8902,15.77237 -0.6506,0.21686 -1.1829,0.79267 -1.1829,1.27958 0,0.4869 0.675,0.62626 1.5,0.30968 1.0324,-0.39618 1.5,0.0628 1.5,1.47236 0,1.12639 0.3897,2.28879 0.8659,2.58313 0.4763,0.29433 0.6552,1.63719 0.3978,2.98414 -0.2575,1.34694 0,3.94518 0.5652,5.77386 0.5684,1.82869 1.3289,6.09678 1.69,9.48466 0.5813,5.45383 0.4459,6.21413 -1.1812,6.634 -1.654,0.42681 -1.6627,0.48581 -0.088,0.59022 1.0182,0.0675 1.75,0.9182 1.75,2.03421 0,1.05502 0.3015,2.70384 0.67,3.66405 0.4826,1.2577 0.3129,1.52515 -0.6072,0.95656 -0.9493,-0.58673 -1.1011,-0.23497 -0.5915,1.37071 1.1715,3.69111 1.4838,9.62321 0.4219,8.01465 -0.6944,-1.0519 -0.8621,-0.77068 -0.6413,1.07582 0.1643,1.375 0.5807,2.95 0.9254,3.5 0.3446,0.55 0.6257,3.843648 0.6246,7.319218 0,5.52961 -0.2705,6.4276 -2.1519,7.18661 -1.6116,0.65019 -1.7285,0.88327 -0.4668,0.93078 1.2049,0.0454 1.6591,0.90592 1.5988,3.02896 -0.05,1.74245 -0.5045,2.70589 -1.1031,2.33595 -0.6193,-0.38277 -0.7634,0.0357 -0.3676,1.06731 0.3582,0.93331 0.3664,4.42188 0.018,7.75239 -0.5098,4.87771 -1.041,6.22044 -2.7312,6.90373 -1.4457,0.58447 -1.6059,0.86799 -0.515,0.91166 1.0837,0.0434 1.5834,1.02368 1.5834,3.10642 0,2.24228 -0.3802,2.89716 -1.4447,2.48866 -1.0076,-0.38663 -1.2597,-0.0723 -0.8333,1.03876 0.3362,0.87622 0.6182,2.11882 0.6266,2.76134 0.01,0.67024 0.4285,0.5288 0.9847,-0.33179 0.5332,-0.825 0.9763,-1.00724 0.9847,-0.40499 0.01,0.60226 -0.9006,1.92387 -2.02,2.93691 -1.1352,1.0274 -1.7796,2.50807 -1.4571,3.34841 0.3179,0.82858 0.024,3.66948 -0.6538,6.31309 -0.9685,3.77885 -1.6726,4.80985 -3.2929,4.82189 -1.6414,0.0122 -1.7653,0.20232 -0.6087,0.93402 0.7988,0.50529 1.8808,0.65387 2.4046,0.33018 0.5867,-0.3626 0.6075,-0.0494 0.054,0.81598 -0.9718,1.52008 -3.1004,8.59337 -4.0266,13.37981 -0.3166,1.63641 -1.6577,5.00783 -2.9802,7.49204 -1.3224,2.48421 -2.4044,5.08283 -2.4044,5.7747 0,0.69188 -1.0125,1.26485 -2.25,1.27327 -1.649,0.0112 -1.8864,0.24568 -0.8888,0.87777 1.0954,0.69398 0.6662,2.40026 -2.1967,8.73469 -6.161,13.63123 -8.9201,17.98148 -11.1645,17.60246 -1.5331,-0.2589 -1.6742,-0.11531 -0.6043,0.61509 0.9206,0.62848 1.1202,1.58289 0.5864,2.80376 -0.8287,1.89517 -1.1259,2.78312 -1.3724,4.10092 -0.077,0.4125 -0.5766,0.075 -1.1097,-0.75 -0.8332,-1.28933 -0.9715,-1.26 -0.9847,0.2089 -0.02,2.1758 -3.2545,8.73396 -4.3243,8.7665 -0.445,0.0135 -0.488,-0.49493 -0.095,-1.12991 0.442,-0.7153 0.2743,-0.88306 -0.441,-0.44098 -0.635,0.39244 -1.1545,1.56145 -1.1545,2.5978 0,1.03636 -0.9488,2.54884 -2.1084,3.36107 -1.1597,0.81223 -1.7977,1.97957 -1.4179,2.59408 0.3798,0.61451 -0.6964,2.5359 -2.3916,4.26975 -1.6952,1.73386 -3.0821,3.56952 -3.0821,4.07926 0,0.50974 -0.9257,0.68471 -2.0572,0.38884 -1.5496,-0.40524 -1.8045,-0.23357 -1.0332,0.69581 1.2054,1.45236 -1.7716,5.41281 -12.2848,16.34302 -5.8486,6.08063 -7.2006,7.03736 -8.4787,6 -1.286,-1.04376 -1.409,-0.937 -0.7971,0.6921 0.5603,1.49183 -0.3559,2.92307 -4.0628,6.3464 -9.2716,8.56244 -16.2789,13.36445 -18.4819,12.66527 -1.4402,-0.45712 -1.836,-0.29814 -1.3232,0.53155 0.4131,0.66842 -0.1672,2.02102 -1.333,3.10713 -2.36,2.19875 -3.5613,2.50596 -2.633,0.67341 0.3483,-0.6875 -0.3377,-0.0125 -1.5244,1.5 -1.1866,1.5125 -3.0466,2.75 -4.1331,2.75 -1.0866,0 -1.724,0.40718 -1.4164,0.90485 0.3075,0.49767 -1.5547,2.1437 -4.1384,3.65784 -3.0464,1.7853 -4.8333,2.346 -5.0835,1.59514 -0.6096,-1.82851 -2.3394,-1.34742 -2.0132,0.55986 0.3391,1.98227 -8.2894,7.22088 -11.9561,7.25895 -1.2375,0.0129 -2.25,0.5215 -2.25,1.13035 0,0.60883 -0.675,0.84793 -1.5,0.53133 -0.825,-0.31653 -1.5,-0.1348 -1.5,0.4039 0,0.5387 -2.5875,2.2121 -5.75,3.7186 -3.1625,1.5066 -5.9,3.0767 -6.0834,3.4892 -0.1833,0.4125 -0.7723,0.75 -1.309,0.75 -0.5366,0 -0.7538,-0.359 -0.4826,-0.7978 0.2711,-0.4387 0.08,-1.4512 -0.4257,-2.25 -0.7662,-1.2112 -0.9212,-1.1676 -0.934,0.2626 -0.016,1.7619 -3.7347,4.3992 -4.759,3.3749 -0.3148,-0.3148 -1.216,-0.038 -2.0027,0.6147 -0.7867,0.653 -3.7531,2.0057 -6.592,3.0062 -4.8557,1.7113 -5.2357,1.718 -6.4116,0.1131 -0.9707,-1.3248 -1.2555,-1.384 -1.2746,-0.2649 -0.036,2.0943 -5.867,4.6009 -10.2769,4.4176 -2.3311,-0.097 -3.298,0.1612 -2.5,0.6675 1.3863,0.8792 1.372,0.8899 -1.6985,1.271 -1.1,0.1365 -4.1375,0.5766 -6.75,0.9779 -3.6198,0.5561 -4.7537,0.4177 -4.7653,-0.5816 -0.012,-0.997 -0.2321,-0.9687 -0.9201,0.1184 -1.1139,1.7603 -1.5472,1.8421 -17.387,3.2857 -10.9732,1.0001 -12.9538,0.9607 -13.7346,-0.2733 -0.6307,-0.9968 -0.9171,-1.0561 -0.9277,-0.192 -0.012,0.936 -2.9666,1.2158 -11.7653,1.1138 -6.4625,-0.075 -12.875,-0.3453 -14.25,-0.6008 z m 21.5,-3.8199 c 4.4,0.054 8.5625,0.4536 9.25,0.887 0.6875,0.4334 1.25,0.3703 1.25,-0.1402 0,-1.3976 7.0139,-2.2528 9.1406,-1.1146 1.256,0.6721 1.8594,0.6591 1.8594,-0.04 0,-0.5694 1.3235,-1.0352 2.941,-1.0352 1.6175,0 3.1499,-0.3375 3.4052,-0.75 0.2553,-0.4125 3.6131,-0.75 7.4617,-0.75 3.8486,0 6.8253,-0.2801 6.6147,-0.6224 -0.2106,-0.3423 1.0707,-0.8665 2.8473,-1.1649 1.7766,-0.2984 3.9783,-0.8389 4.8927,-1.2011 1.1226,-0.4446 1.8156,-0.066 2.134,1.165 0.3835,1.4831 0.4931,1.41 0.5874,-0.3922 0.099,-1.8806 0.8718,-2.3158 5.116,-2.8788 2.75,-0.3648 5,-1.0529 5,-1.529 0,-0.4762 1.6235,-0.6077 3.6077,-0.2924 2.2036,0.3502 3.3756,0.1978 3.0113,-0.3917 -0.8562,-1.3854 3.001,-2.1725 4.2967,-0.8768 0.7791,0.7791 1.0843,0.6167 1.0843,-0.577 0,-1.1342 1.6255,-2.1439 5.1234,-3.1827 2.8179,-0.8368 5.5179,-1.2777 6,-0.9797 0.4822,0.2979 0.8766,0.039 0.8766,-0.5763 0,-0.6149 0.45,-0.8399 1,-0.5 0.55,0.3399 1,-0.1101 1,-1 0,-0.8899 0.4544,-1.33724 1.0097,-0.994 0.5553,0.3432 2.191,-0.30528 3.6348,-1.44103 1.4439,-1.13574 3.4039,-2.06498 4.3555,-2.06498 0.9517,0 2.8745,-0.9 4.2729,-2 1.3984,-1.1 3.3941,-2 4.4349,-2 1.0407,0 2.451,-0.55874 3.1339,-1.24164 0.9888,-0.98886 1.4084,-0.97178 2.0608,0.0839 0.6496,1.05099 0.9501,0.98437 1.4513,-0.32175 0.3477,-0.90597 1.0801,-1.37033 1.6277,-1.0319 0.5748,0.35522 0.7439,-0.0407 0.4001,-0.93662 -0.4444,-1.15806 0.066,-1.55199 2.0114,-1.55199 1.4339,0 2.607,-0.46412 2.607,-1.03138 0,-0.56727 0.7875,-1.32353 1.75,-1.68059 0.9625,-0.35707 2.5306,-1.5288 3.4846,-2.60386 1.5043,-1.69516 1.9606,-1.77075 3.4372,-0.56941 1.493,1.21461 1.6236,1.17411 1.0606,-0.32883 -0.4446,-1.18706 0.2371,-2.34004 2.2172,-3.75 1.5725,-1.11976 3.1272,-2.03593 3.4548,-2.03593 0.3276,0 1.4634,-0.7875 2.5239,-1.75 3.7203,-3.37622 5.5291,-4.75 6.2541,-4.75 0.4023,0 1.3134,-0.74954 2.0246,-1.66564 0.7112,-0.9161 2.1043,-1.8161 3.0958,-2 0.9916,-0.1839 1.7893,-0.66163 1.7728,-1.06163 -0.052,-1.24709 5.367,-6.24497 6.503,-5.99813 0.5933,0.1289 1.6553,-0.84312 2.3601,-2.16005 0.7048,-1.31692 2.3416,-2.96176 3.6373,-3.65519 1.2957,-0.69343 2.1196,-1.64297 1.8309,-2.11007 -0.2887,-0.46711 -0.039,-0.84929 0.5555,-0.84929 0.5943,0 1.5931,-1.125 2.2196,-2.5 0.7541,-1.65518 1.9496,-2.5 3.5376,-2.5 1.4441,0 2.1362,-0.42439 1.7393,-1.06653 -0.3625,-0.5866 0.1734,-1.67532 1.191,-2.41939 1.0176,-0.74407 1.8501,-1.73134 1.8501,-2.19393 0,-1.63932 7.9472,-10.32039 9.4618,-10.33546 1.1544,-0.0115 1.2237,-0.215 0.2775,-0.81563 -0.9373,-0.59501 -0.6166,-1.40543 1.25,-3.15901 1.3809,-1.29727 2.5107,-3.00772 2.5107,-3.801 0,-0.96334 0.6832,-1.26366 2.0572,-0.90436 1.6486,0.43112 1.8326,0.26739 0.9265,-0.82441 -0.8677,-1.04541 -0.6045,-2.07408 1.1309,-4.42133 1.2438,-1.68242 2.8378,-3.05895 3.5421,-3.05895 0.7313,0 1.032,-0.64779 0.701,-1.51021 -0.3187,-0.83061 0.5954,-3.05058 2.0314,-4.93327 1.436,-1.88269 2.6109,-3.89929 2.6109,-4.48132 0,-0.58204 0.8551,-1.59227 1.9002,-2.24496 1.0452,-0.65269 1.6895,-1.73598 1.4319,-2.40732 -0.2576,-0.67134 0.012,-1.51769 0.5998,-1.88079 0.5874,-0.36309 1.0681,-1.54325 1.0681,-2.62259 0,-1.1287 1.0742,-2.45184 2.5284,-3.11442 1.809,-0.82422 2.167,-1.37535 1.2584,-1.93692 -1.0115,-0.62512 -1.0173,-1.0377 -0.028,-2.02656 0.6829,-0.6829 1.2416,-2.02928 1.2416,-2.99195 0,-0.96267 0.6114,-2.11017 1.3586,-2.55 0.7472,-0.43983 1.9071,-2.48719 2.5775,-4.54969 0.6705,-2.0625 1.62,-3.75 2.1101,-3.75 0.4901,0 0.6495,-0.62948 0.3542,-1.39885 -0.2952,-0.76937 -0.056,-1.69592 0.5314,-2.05902 0.5875,-0.36309 1.0682,-1.57397 1.0682,-2.69085 0,-1.11688 1.0125,-2.92461 2.25,-4.01718 1.2375,-1.09256 1.6166,-1.65682 0.8425,-1.25392 -1.1059,0.57556 -1.2466,0.21684 -0.6567,-1.67381 0.4129,-1.3235 0.8554,-3.30637 0.9833,-4.40637 0.1279,-1.1 0.761,-3.26679 1.4067,-4.8151 0.6458,-1.5483 1.1742,-3.31287 1.1742,-3.92126 0,-0.60839 0.7447,-1.92909 1.655,-2.9349 1.044,-1.1536 1.2156,-1.82874 0.4648,-1.82874 -0.8923,0 -0.9139,-0.51616 -0.086,-2.06255 0.6071,-1.13441 1.1414,-3.38441 1.1874,-5 0.056,-1.98256 0.6029,-2.94243 1.6813,-2.95276 1.2722,-0.0122 1.3226,-0.18973 0.2473,-0.87116 -1.1169,-0.70776 -1.1351,-1.87309 -0.1054,-6.73469 0.6849,-3.23336 1.8684,-6.89576 2.6301,-8.13867 0.7616,-1.24291 1.034,-2.20212 0.6053,-2.13158 -1.9425,0.31961 -2.2697,-0.25826 -1.238,-2.18615 0.7122,-1.33079 1.7134,-1.86907 2.7852,-1.49755 1.3907,0.48206 1.3651,0.3406 -0.1519,-0.83766 -1.5636,-1.2145 -1.7318,-2.32555 -1.1741,-7.75245 0.3581,-3.48413 0.619,-7.90978 0.5797,-9.83478 -0.2984,-14.627248 -0.1778,-15.843458 1.6786,-16.924908 1.6523,-0.96261 1.6519,-1.01582 -0.01,-1.04468 -1.6467,-0.0286 -2.0457,-2.44819 -1.9836,-12.03041 0,-0.275 0.3283,-1.56885 0.7255,-2.87523 0.4476,-1.47186 0.3488,-2.14435 -0.2599,-1.76818 -1.1662,0.72079 -2.501,-6.49218 -1.6241,-8.77712 0.3334,-0.86871 0.1359,-1.57947 -0.4387,-1.57947 -0.5747,0 -1.079,-0.7875 -1.1206,-1.75 -0.042,-0.9625 -0.3126,-3.775 -0.6022,-6.25 -0.2895,-2.475 -0.6209,-5.925 -0.7364,-7.66667 -0.1155,-1.74166 -0.66,-3.09166 -1.21,-3 -0.55,0.0917 -0.8592,-0.84583 -0.6871,-2.08333 0.1736,-1.24871 -0.217,-2.25 -0.8778,-2.25 -0.8348,0 -0.9988,-1.27016 -0.5487,-4.25 0.4509,-2.98471 0.3446,-3.80343 -0.3569,-2.75 -0.7901,1.18656 -1.002,0.9377 -1.0142,-1.19098 -0.01,-1.48004 -0.4261,-2.9449 -0.9283,-3.25524 -0.5021,-0.31034 -1.2163,-2.35954 -1.587,-4.55378 -0.3707,-2.19424 -1.1112,-4.25972 -1.6455,-4.58996 -0.5344,-0.33024 -0.6929,-2.0201 -0.3523,-3.75524 0.4103,-2.09084 0.3048,-2.69912 -0.313,-1.80365 -0.6839,0.99127 -1.364,0.084 -2.5533,-3.4064398 -1.303,-3.82415 -1.3773,-5.05794 -0.3785,-6.28838 1.0448,-1.28705002 0.9589,-1.42441002 -0.5394,-0.86266002 -1.3335,0.49996002 -2.0411,-0.0192 -2.8113,-2.06276998 -0.5661,-1.502 -1.6767,-4.03754 -2.468,-5.63454 -0.7913,-1.597 -1.4387,-3.9453802 -1.4387,-5.2186102 0,-1.64692 -0.4328,-2.14887 -1.5,-1.73938 -1.8896,0.72513 -2.1313,-4.1715 -0.25,-5.06612 0.6875,-0.32694 0.2471,-0.40908 -0.9786,-0.18255 -1.8399,0.34004 -2.7556,-0.56111 -5.25,-5.16649 -1.6618,-3.06811 -3.0214,-5.96745 -3.0214,-6.443 0,-0.90067 -0.4073,-1.44923 -4.5155,-6.08173 -1.3665,-1.54084 -2.4845,-3.3866 -2.4845,-4.10169 0,-0.71509 -1.3519,-2.8294 -3.0043,-4.69848 -5.5509,-6.27886 -5.9995,-6.89831 -4.9957,-6.89831 0.55,0 1,-0.45 1,-1 0,-0.55 -0.6902,-1 -1.5337,-1 -0.8435,0 -2.463,-1.575 -3.5988,-3.5 -1.1358,-1.925 -2.4706,-3.5 -2.9663,-3.5 -0.4956,0 -0.9012,-0.50972 -0.9012,-1.13271 0,-0.62299 -0.9608,-1.96605 -2.1352,-2.98458 -1.8562,-1.60987 -1.9542,-2.07132 -0.75,-3.53102 1.253,-1.51885 1.182,-1.5709 -0.7433,-0.54524 -1.8902,1.00693 -2.646,0.57216 -6.75,-3.88313 -2.5418,-2.75937 -4.6215,-5.65682 -4.6215,-6.43879 0,-0.79346 -0.6058,-1.18927 -1.3709,-0.89567 -0.7541,0.28935 -1.6399,-0.17477 -1.9686,-1.03138 -0.3288,-0.85661 -1.3102,-1.55747 -2.1811,-1.55747 -0.8712,0 -2.0689,-1.39269 -2.6628,-3.09638 -0.7921,-2.27224 -1.3065,-2.73802 -1.9327,-1.75 -0.6551,1.03374 -0.8568,1.05037 -0.8686,0.0716 -0.01,-0.70111 -1.1403,-1.70247 -2.5153,-2.22524 -1.375,-0.52278 -2.5,-1.59262 -2.5,-2.37743 0,-0.78481 -1.3075,-1.88274 -2.9056,-2.43984 -1.5982,-0.55711 -3.211,-1.97482 -3.5841,-3.15048 -0.543,-1.710882 -0.9611,-1.902992 -2.0944,-0.96246 -1.1211,0.93041 -1.4159,0.84123 -1.4159,-0.4283 0,-0.881862 -1.0685,-1.871582 -2.3745,-2.199362 -1.306,-0.32778 -2.9119,-1.77538 -3.5687,-3.21689 -0.9662,-2.12052 -1.3755,-2.34449 -2.1438,-1.17308 -0.808,1.23198 -1.1033,1.18694 -1.981,-0.30215 -0.5672,-0.9625 -1.5761,-1.75 -2.2419,-1.75 -0.6658,0 -2.3309,-1.03568 -3.7003,-2.3015 -1.3694,-1.26582 -3.1648,-2.61296 -3.9898,-2.99363 -0.825,-0.38068 -2.175,-1.08108 -3,-1.55645 -4.6932,-2.70427 -8.0077,-4.14842 -9.5209,-4.14842 -1.2024,0 -1.5612,-0.57778 -1.205,-1.94025 0.423,-1.61723 0.224,-1.76324 -1.1951,-0.877 -2.2435,1.40111 -8.5025,-1.63666 -7.697,-3.73572 0.4334,-1.1295 0.1832,-1.19241 -1.2308,-0.3094 -1.3564,0.84712 -2.5145,0.72582 -4.9133,-0.51463 -1.7262,-0.89266 -3.7662,-1.62301 -4.5332,-1.62301 -0.7671,0 -2.2188,-0.91063 -3.2261,-2.02363 -1.4185,-1.56742 -2.0342,-1.7365 -2.7311,-0.75 -0.715,1.01217 -1.0039,1.01702 -1.4069,0.0236 -0.279,-0.6875 -1.4532,-1.25 -2.6095,-1.25 -1.1562,0 -3.1807,-1.0125 -4.499,-2.25 -1.3183,-1.2375 -2.3065,-1.8 -2.196,-1.25 0.4382,2.18222 -0.108,2.57095 -1.565,1.11392 -0.8409,-0.84092 -2.108,-1.30673 -2.8158,-1.03515 -0.7077,0.27159 -2.5507,-0.16192 -4.0954,-0.96336 -1.5448,-0.80143 -3.331,-1.25672 -3.9694,-1.01175 -0.6384,0.24496 -2.1574,-0.48317 -3.3756,-1.61809 -1.9031,-1.77298 -2.2149,-1.82959 -2.2149,-0.40208 0,1.3571 -0.2724,1.43532 -1.4872,0.42708 -0.818,-0.67888 -2.238,-0.94625 -3.1555,-0.59417 -1.0334,0.39654 -2.5917,-0.22681 -4.0951,-1.63813 -1.6238,-1.52428 -2.3169,-1.78185 -2.0946,-0.77827 0.2073,0.9353 -0.2323,1.34149 -1.1676,1.07895 -0.825,-0.23158 -2.7375,-0.51283 -4.25,-0.625 -1.5125,-0.11217 -2.975,-0.31645 -3.25,-0.45395 -0.275,-0.1375 -0.95,-0.3625 -1.5,-0.5 -0.55,-0.1375 -1.1125,-0.34281 -1.25,-0.45624 -0.556,-0.45874 -6.61,-1.03713 -12.5,-1.19424 -4.9233,-0.13133 -6.2746,-0.50452 -6.366,-1.75812 -0.092,-1.26049 -0.2122,-1.22169 -0.5787,0.18659 -0.3868,1.48631 -1.4751,1.75048 -6.634,1.61026 -3.3942,-0.0922 -7.2095,-0.55349 -8.4784,-1.02497 -1.4871,-0.55254 -2.0882,-0.50287 -1.691,0.13974 0.3482,0.56343 -0.4967,0.99698 -1.9429,0.99698 -1.7263,0 -2.5967,-0.56946 -2.675,-1.75 -0.1,-1.50967 -0.1756,-1.52612 -0.5502,-0.11977 -0.4846,1.81894 -5.3829,2.85603 -12.08425,2.55849 -2.6592,-0.11807 -4.2503,0.24421 -4.25,0.96766 2e-4,0.66514 -0.8515,0.93361 -2.0049,0.63198 -1.1029,-0.28842 -2.5654,-0.0612 -3.25,0.50486 -0.6846,0.5661 -2.9692,0.94717 -5.0771,0.84682 -2.1078,-0.10035 -4.0468,0.16459 -4.309,0.58875 -0.2621,0.42417 -1.9351,0.77121 -3.7176,0.77121 -1.7825,0 -3.781,0.54 -4.441,1.2 -0.9333,0.93333 -1.2,0.81357 -1.2,-0.53895 0,-1.56056 -0.2245,-1.52978 -2.1885,0.3 -1.2037,1.12142 -3.1572,2.03895 -4.3411,2.03895 -1.1839,0 -4.3367,0.65734 -7.0063,1.46076 -3.82237,1.1504 -5.17077,1.20351 -6.34607,0.25 -1.2396,-1.00564 -1.3793,-0.90887 -0.8243,0.57125 0.6695,1.78581 -1.803,3.35043 -6.4042,4.05263 -1.0109,0.15427 -2.1496,0.59209 -2.5304,0.97293 -0.3808,0.38084 -1.7424,0.69243 -3.0258,0.69243 -1.2833,0 -2.3333,0.45 -2.3333,1 0,0.55 -0.8449,1 -1.8776,1 -1.0326,0 -2.4353,0.67213 -3.1171,1.49362 -0.8212,0.98944 -2.2658,1.31284 -4.2797,0.95804 -2.6525,-0.46729 -2.877,-0.33896 -1.7604,1.00638 1.0953,1.31979 0.9172,1.54197 -1.2358,1.54197 -1.3835,0 -2.7863,0.70602 -3.1175,1.56895 -0.3814,0.994 -1.285,1.35218 -2.4658,0.97742 -1.059,-0.33613 -2.3863,0.0381 -3.074,0.86677 -0.6657,0.80206 -2.5331,1.74884 -4.1499,2.10395 -1.6168,0.35511 -2.6842,1.05903 -2.3719,1.56428 0.3123,0.50524 -0.064,0.91863 -0.8363,0.91863 -0.7722,0 -2.1613,0.83674 -3.0868,1.85943 -0.9465,1.04592 -2.7346,1.74398 -4.0869,1.59553 -1.7161,-0.18838 -2.25,0.13807 -1.8653,1.14056 0.32,0.83377 -0.091,1.40448 -1.0113,1.40448 -0.8527,0 -2.1438,0.7875 -2.8692,1.75 -1.3196,1.75097 -3.4847,3.1914 -9.5055,6.323972 -1.7661,0.91887 -2.9286,1.95312 -2.5833,2.29834 0.3452,0.34522 0.1372,0.62768 -0.4623,0.62768 -0.5995,0 -2.4811,1.17059 -4.1814,2.60132 -1.7004,1.43072 -3.737,2.35364 -4.5258,2.05093 -0.97,-0.3722 -1.248,-0.0648 -0.8588,0.94956 0.8876,2.31293 -3.6052,6.55587 -6.1026,5.76323 -1.7608,-0.55884 -1.875,-0.43167 -0.7883,0.8777 1.0693,1.28845 0.751,1.95122 -2.0078,4.18 -1.8033,1.45682 -4.3294,3.53267 -5.6136,4.61301 -1.2843,1.08034 -3.0843,1.99977 -4,2.04319 -1.0393,0.0493 -1.1953,0.26853 -0.4151,0.58334 1.8732,0.75585 1.5075,2.03711 -0.75,2.62746 -1.1,0.28765 -2,1.19135 -2,2.00822 0,0.81687 -1.214,1.78991 -2.6978,2.16233 -1.9478,0.48885 -2.3273,0.90616 -1.3649,1.50092 1.0276,0.63511 0.8439,1.08553 -0.8022,1.96647 -1.1743,0.62847 -2.1351,2.02684 -2.1351,3.10749 0,1.26447 -0.678,1.96482 -1.9022,1.96482 -1.2265,0 -2.2845,1.09689 -2.9786,3.08804 -0.6071,1.74139 -1.9949,3.3282 -3.1824,3.63874 -1.6131,0.42184 -1.7936,0.75649 -0.7713,1.43025 1.0695,0.70488 0.9869,1.0844 -0.4155,1.91096 -0.9625,0.56726 -1.75,1.69368 -1.75,2.50314 0,0.80946 -1.0894,1.9681 -2.4209,2.57476 -1.3314,0.60666 -2.2109,1.64992 -1.9544,2.31835 0.2565,0.66843 -0.2292,1.79253 -1.0792,2.49799 -0.85,0.70546 -1.5455,2.12756 -1.5455,3.16021 0,1.03266 -0.374,1.87756 -0.831,1.87756 -0.4571,0 -1.4665,1.2375 -2.2432,2.75 -0.7767,1.5125 -2.0902,3.425 -2.919,4.25 -0.8287,0.825 -1.6554,2.17074 -1.837,2.99054 -0.1816,0.81979 -0.7084,1.7243 -1.1707,2.01001 -0.4623,0.28572 -1.1593,1.78976 -1.549,3.34231 -0.5323,2.12087 -1.1737,2.70117 -2.5793,2.3336 -2.0641,-0.53978 -2.6166,0.88913 -0.6208,1.6056 0.9175,0.32936 0.6507,1.61509 -1.0028,4.8333302 -1.239,2.41154 -2.2515,4.92159 -2.25,5.57791 0.001,0.65631 -0.9288,1.84578998 -2.0673,2.64327998 -1.5384,1.07749 -1.7311,1.60585002 -0.75,2.05670002 1.04,0.47799 1.0536,0.73093 0.064,1.19213 -0.691,0.32198 -1.0019,0.99698 -0.691,1.5 0.3109,0.50302 -0.4738,0.92827 -1.7438,0.945 -1.9957,0.0263 -2.0799,0.16405 -0.6207,1.01515 1.565,0.91283 1.5319,1.36705 -0.4526,6.2195898 -1.1774,2.87917 -2.6121,5.56546 -3.1882,5.96954 -0.5761,0.40408 -0.624,0.74158 -0.1064,0.75 0.5176,0.008 0.068,0.72368 -1,1.58947 -1.0676,0.86578 -1.4097,1.30844 -0.7602,0.98369 0.6495,-0.32476 1.4635,-0.13313 1.809,0.42584 0.3455,0.55897 0.1516,1.01631 -0.4309,1.01631 -0.5825,0 -1.059,1.37958 -1.059,3.06574 0,1.68616 -0.4894,3.98018 -1.0876,5.09783 -0.5981,1.11764 -1.2878,3.64718 -1.5327,5.62119 -0.2448,1.97402 -0.9307,4.17426 -1.5243,4.88944 -0.5935,0.71518 -0.7987,2.03116 -0.4559,2.92441 0.408,1.0633 0.1876,1.45695 -0.6382,1.14005 -0.8608,-0.33032 -1.2982,0.66635 -1.3774,3.13866 -0.064,1.99247 -0.4178,5.42268 -0.7865,7.62268 -0.3687,2.2 -0.7665,4.80438 -0.8839,5.78751 -0.1174,0.98314 -0.8885,2.21375 -1.7135,2.73469 -1.1586,0.73159 -1.1906,0.95066 -0.1404,0.96249 1.0575,0.0119 1.2444,1.43616 0.8412,6.41057 -0.2851,3.51739 -1.0543,7.39669 -1.7093,8.62067 -0.8527,1.5933 -0.8673,2.02532 -0.051,1.52096 0.7899,-0.48822 0.9491,0.0552 0.5187,1.77023 -0.3445,1.37279 -0.1414,2.77117 0.4563,3.14054 0.7381,0.45618 0.5801,1.62729 -0.5016,3.71916 -0.8684,1.67932 -1.1821,2.80802 -0.697,2.50822 1.086,-0.67117 1.0505,16.342228 -0.038,18.063508 -0.5232,0.82756 -0.3101,1.0571 0.642,0.69174 1.1325,-0.43458 1.3762,0.46582 1.1877,4.38727 -0.1305,2.71374 -0.5467,5.4348 -0.925,6.0468 -0.4217,0.68241 -0.1408,0.90287 0.7265,0.57006 1.1078,-0.42511 1.667,1.42896 2.5814,8.55922 0.642,5.00603 0.9025,9.53039 0.5788,10.05412 -0.3237,0.52373 -0.2143,0.95224 0.2431,0.95224 1.453,0 3.2132,9.39354 1.9178,10.23469 -0.7336,0.47636 -0.5588,0.74007 0.497,0.75 1.0592,0.01 1.9839,1.41631 2.6458,4.0239 0.8554,3.36998 0.7553,4.1617 -0.6283,4.9696 -1.4102,0.82337 -1.3302,0.96535 0.5588,0.9914 1.7525,0.0242 2.3433,0.79956 2.8804,3.78041 0.3716,2.0625 1.1187,4.30838 1.6601,4.99084 0.5415,0.68246 0.7926,2.54831 0.5581,4.14632 -0.3087,2.10333 -0.064,2.76652 0.8851,2.40217 0.819,-0.31428 1.3116,0.26584 1.3116,1.54466 0,1.12639 0.4933,2.35282 1.0961,2.72541 0.6029,0.3726 0.9127,1.9275 0.6884,3.45534 -0.2923,1.99185 -0.037,2.63547 0.9039,2.27459 0.8106,-0.31106 1.3116,0.25474 1.3116,1.48124 0,1.0915 0.6483,2.52254 1.4406,3.1801 0.7923,0.65756 1.2031,1.81438 0.9128,2.57072 -0.2902,0.75634 0.4115,2.38329 1.5595,3.61545 1.1479,1.23216 2.0871,3.05543 2.0871,4.05172 0,0.99629 0.45,1.81144 1,1.81144 0.55,0 1,0.6199 1,1.37756 0,0.75765 0.675,1.93775 1.5,2.62244 0.825,0.68469 1.5,2.52567 1.5,4.09106 0,2.11909 0.3832,2.69913 1.5,2.27057 1.0451,-0.40106 1.5,0.0728 1.5,1.56277 0,1.1761 0.5984,2.36798 1.3297,2.64862 0.7313,0.28064 1.9403,2.06651 2.6866,3.96861 0.7464,1.90211 1.7712,3.45837 2.2773,3.45837 0.5062,0 0.6524,0.69837 0.3248,1.55194 -0.3414,0.88992 -0.1738,1.29132 0.3931,0.94098 0.5437,-0.33602 0.9885,0.34216 0.9885,1.50708 0,1.16728 0.4521,1.83865 1.0071,1.49563 0.5539,-0.34231 1.3101,0.19363 1.6806,1.19099 0.3704,0.99736 1.5455,2.5874 2.6114,3.53343 1.1691,1.03767 1.688,2.3712 1.308,3.36134 -0.4492,1.17065 -0.2067,1.47894 0.8456,1.07512 1.4741,-0.56567 5.5473,4.02191 5.5473,6.24786 0,0.6026 0.4717,1.09563 1.0483,1.09563 0.5765,0 1.6839,1.4625 2.4608,3.25 0.777,1.7875 1.4302,2.88036 1.4518,2.42857 0.022,-0.45178 0.7428,-0.11774 1.6029,0.74233 0.86,0.86007 1.2362,2.09368 0.8359,2.74137 -0.4793,0.77551 -0.2036,0.97646 0.8074,0.58851 1.8216,-0.69901 10.2544,7.41284 9.0654,8.72035 -0.4249,0.46724 -0.21,0.52582 0.4775,0.13018 0.6875,-0.39564 1.25,-0.24279 1.25,0.33967 0,0.58246 0.675,1.05902 1.5,1.05902 0.825,0 1.5,0.45965 1.5,1.02144 0,0.56179 1.0275,1.48961 2.2834,2.06183 1.2559,0.57222 3.1684,2.37599 4.25,4.00838 1.0816,1.6324 2.963,3.22431 4.1808,3.53759 1.2178,0.31327 2.4856,1.42485 2.8174,2.47017 0.3317,1.04533 1.296,1.90059 2.1428,1.90059 0.9577,0 1.322,0.56694 0.964,1.5 -0.395,1.0294 0.061,1.5 1.452,1.5 1.278,0 1.7638,0.42682 1.3141,1.15451 -0.4716,0.76315 -0.2707,0.88085 0.5927,0.34722 0.7908,-0.48875 1.7396,-0.22482 2.4045,0.66891 0.6041,0.81191 3.2109,2.70881 5.7929,4.21534 3.5069,2.04615 4.5348,3.16605 4.0628,4.42658 -0.5506,1.47044 -0.4152,1.5112 1.053,0.31695 1.4622,-1.18936 2.1389,-1.02416 5.1205,1.25 1.8896,1.44127 3.8782,2.62049 4.419,2.62049 0.5408,0 1.9542,1.2375 3.1409,2.75 1.1866,1.5125 1.8726,2.1875 1.5244,1.5 -0.373,-0.73624 0.01,-1.25 0.9258,-1.25 0.8574,0 1.559,0.45 1.559,1 0,0.55 1.049,1 2.331,1 1.4677,0 2.8304,0.933 3.6792,2.51908 0.9667,1.80629 1.5687,2.16235 2.1274,1.25836 0.6205,-1.00405 1.0319,-1.00794 2.0208,-0.0191 0.6829,0.6829 2.0035,1.24164 2.9346,1.24164 0.9312,0 1.9396,0.64255 2.241,1.42788 0.3013,0.78533 1.812,1.5728 3.3569,1.75 1.6898,0.1938 2.6996,0.8498 2.5343,1.6464 -0.1592,0.7675 0.2031,1.029 0.8618,0.6219 0.6252,-0.3863 1.5363,-0.082 2.0248,0.6757 0.7451,1.156 1.0469,1.1364 1.8729,-0.1219 0.6585,-1.003 0.9898,-1.0859 1,-0.25 0.01,0.6943 1.242,1.25 2.7748,1.25 1.7393,0 3.255,0.7936 4.1002,2.1469 1.0387,1.6632 1.5262,1.8467 2.1643,0.8143 0.5798,-0.9381 1.2162,-1.0305 2.1498,-0.3121 0.7294,0.5613 4.02617,1.593 7.32617,2.2927 3.3,0.6997 6.7875,1.9688 7.75,2.8202 1.0084,0.892 1.75,1.0802 1.75,0.444 0,-0.7344 1.1864,-0.6082 3.544,0.3769 1.9493,0.8144 3.9781,1.2125 4.5085,0.8847 0.5304,-0.3278 1.3821,0.4453 1.8926,1.7182 0.7606,1.8966 0.9396,1.9783 0.9915,0.4529 0.054,-1.5981 0.5936,-1.766 3.8134,-1.1871 2.0625,0.3708 4.3125,1.4069 5,2.3025 0.8828,1.1498 1.25,1.2395 1.25,0.3054 0,-1.316 0.2552,-1.3066 11.27345,0.4175 1.5254,0.2386 3.2129,0.7055 3.75,1.0375 0.5372,0.3319 0.9766,0.1553 0.9766,-0.3926 0,-1.0734 6.4614,-0.3997 8.9885,0.9371 0.8186,0.4331 1.7186,0.4494 2,0.036 0.2813,-0.4131 4.1115,-0.7066 8.5115,-0.6521 z m -21,-3.6767 c -13.66855,-1.2984 -17.01695,-2.1004 -16.86115,-4.0384 0.076,-0.9504 -0.2611,-1.728 -0.75,-1.728 -0.4889,0 -0.8889,0.7232 -0.8889,1.607 0,1.0545 -0.5438,1.3983 -1.5818,1 -0.8699,-0.3338 -2.2465,-0.607 -3.059,-0.607 -0.8125,0 -1.265,-0.3434 -1.0056,-0.7631 0.2594,-0.4197 -1.8515,-0.7595 -4.691,-0.7552 -3.4282,0 -5.086,-0.388 -4.9347,-1.1704 0.1557,-0.8055 -0.8671,-1.0007 -3.2323,-0.6168 -2.6449,0.4292 -3.6096,0.1719 -4.0946,-1.092 -0.4835,-1.2598 -0.9553,-1.3873 -1.9815,-0.5356 -2.0285,1.6835 -11.77277,-1.7036 -10.96407,-3.8111 0.4787,-1.2476 0.3152,-1.3103 -0.8645,-0.3312 -1.1638,0.9659 -2.8188,0.6233 -8.2729,-1.7127 -3.7499,-1.606 -9.8542,-4.21028 -13.5651,-5.78724 -5.8005,-2.4649 -6.6572,-3.15074 -6.1058,-4.88807 0.5461,-1.72059 0.4151,-1.8331 -0.8812,-0.75722 -2.0155,1.67267 -4.6184,0.6303 -13.8866,-5.56104 -4.0586,-2.71126 -8.4267,-5.47904 -9.7069,-6.15062 -1.4781,-0.77548 -2.1126,-1.78109 -1.7386,-2.75571 0.4087,-1.06497 0.1358,-1.36079 -0.8915,-0.96657 -0.8142,0.31245 -2.7318,-0.0847 -4.2614,-0.88249 -1.5626,-0.81509 -2.1237,-1.4928 -1.2809,-1.54694 0.825,-0.053 -0.011,-0.53127 -1.8584,-1.06285 -1.9641,-0.56522 -3.5695,-1.77336 -3.8667,-2.90981 -0.2795,-1.06882 -1.2432,-1.95581 -2.1415,-1.97109 -2.5528,-0.0434 -7.4918,-5.59589 -6.734,-7.57054 0.56,-1.45954 0.4277,-1.50304 -0.991,-0.32562 -1.4179,1.17674 -1.9365,1.01133 -3.8676,-1.23371 -1.2265,-1.42597 -3.425,-3.3756 -4.8854,-4.33252 -1.4605,-0.95692 -2.6554,-2.3631 -2.6554,-3.12484 0,-0.76174 -0.675,-1.38499 -1.5,-1.38499 -0.825,0 -1.5,-0.34867 -1.5,-0.77483 0,-0.42615 -2.4862,-3.40399 -5.525,-6.61742 -4.7023,-4.97258 -5.3351,-6.07635 -4.25,-7.4124 1.0701,-1.31756 1.0174,-1.47349 -0.3279,-0.97039 -2.2365,0.8363 -5.6598,-3.12676 -3.7476,-4.3385 1.0799,-0.68436 1.0349,-0.8589 -0.2245,-0.87115 -3.0194,-0.0294 -10.1458,-8.74432 -9.3082,-11.38322 0.3802,-1.19786 0.2081,-1.64189 -0.4732,-1.22084 -0.5888,0.36393 -1.9871,-0.25471 -3.1071,-1.37478 -2.2941,-2.29404 -2.6612,-3.47094 -0.7865,-2.52131 0.6875,0.34825 0.013,-0.33772 -1.5,-1.52439 -1.5125,-1.18667 -2.75,-2.96757 -2.75,-3.95755 0,-0.98997 -0.9,-2.03531 -2,-2.32297 -1.1,-0.28766 -2,-1.28321 -2,-2.21234 0,-0.92913 -0.7875,-3.06036 -1.75,-4.73607 -1.3176,-2.29387 -1.4411,-3.1557 -0.5,-3.48763 0.6875,-0.24248 1.25,-0.83925 1.25,-1.32616 0,-0.4869 -0.6084,-0.6518 -1.3521,-0.36644 -1.7527,0.6726 -3.3242,-1.84708 -8.9898,-14.41372 -4.9545,-10.98948 -5.3878,-12.70677 -3.4081,-13.50561 0.6875,-0.27741 0.1625,-0.53991 -1.1667,-0.58333 -1.3291,-0.0434 -2.1205,-0.37505 -1.7586,-0.73694 0.3619,-0.3619 0.2893,-1.1494 -0.1612,-1.75 -1.8671,-2.48908 -7.1635,-19.86107 -7.1635,-23.49592 0,-1.15285 0.536,-2.09609 1.1911,-2.09609 0.723,0 0.5766,-0.49135 -0.3723,-1.25 -1.8063,-1.44411 -3.0809,-5.75 -1.7021,-5.75 0.5112,0 0.1831,-1.13904 -0.7291,-2.53121 -0.9122,-1.39216 -1.3884,-2.80133 -1.0582,-3.13148 0.3301,-0.33015 0.1502,-1.44111 -0.3998,-2.46879 -0.687,-1.28375 -0.665,-1.86852 0.07,-1.86852 0.7446,0 0.7295,-0.63702 -0.05,-2.09314 -0.6161,-1.15123 -0.8601,-3.12931 -0.5423,-4.39574 0.3522,-1.40309 0.082,-2.49303 -0.6924,-2.79008 -1.6094,-0.6176 -2.1319,-10.34562 -0.6062,-11.28852 0.7674,-0.47431 0.6904,-0.93822 -0.2525,-1.52074 -1.0234,-0.63231 -1.4032,-4.31314 -1.5461,-14.984458 -0.1781,-13.29947 -0.072,-14.17697 1.7733,-14.65951 1.7866,-0.46721 1.8151,-0.62116 0.3177,-1.71609 -1.7818,-1.30288 -1.7713,-1.604 0.6424,-18.40568 1.1029,-7.6773 1.6963,-9.48435 3.3104,-10.08143 1.5794,-0.58426 1.6711,-0.84086 0.4656,-1.30342 -1.0374,-0.3981 -1.3611,-1.5277 -1.0484,-3.65836 0.2488,-1.69533 0.8253,-2.85193 1.2812,-2.57022 0.4558,0.28171 0.5728,-1.0649 0.26,-2.99248 -0.4366,-2.69016 -0.1845,-3.65216 1.0847,-4.13919 1.3024,-0.49978 1.4038,-0.93545 0.4773,-2.05181 -0.8528,-1.02754 -0.8848,-2.0267 -0.1162,-3.63322 0.583,-1.21875 1.3117,-3.00341 1.6193,-3.96591 0.3076,-0.9625 1.3035,-1.75 2.2131,-1.75 1.3361,0 1.4212,-0.28033 0.4429,-1.45912 -0.9623,-1.15947 -0.7835,-2.64783 0.8705,-7.24763 1.1448,-3.18369 2.5346,-5.9395898 3.0885,-6.1242198 0.5539,-0.18463 1.0071,-1.1982 1.0071,-2.25236 0,-1.05417 0.4079,-1.91667 0.9064,-1.91667 0.4985,0 0.7383,-0.7875 0.533,-1.75 -0.6098,-2.85828002 4.7748,-12.77317 6.8457,-12.60526 1.2788,0.10369 1.5034,-0.19465 0.7918,-1.05204 -1.3188,-1.5890802 -0.1573,-5.8375202 1.4295,-5.2286102 0.7525,0.28875 1.2532,-0.38002 1.268,-1.69344 0.013,-1.19386 0.9537,-4.30815 2.0895,-6.92065 1.594,-3.66656 2.5863,-4.75349 4.3505,-4.76531 1.6443,-0.011 1.909,-0.25401 0.9434,-0.86598 -1.2856,-0.81482 -0.9428,-2.08246 1.6466,-6.08975 0.1674,-0.25907 0.723,0.19093 1.2346,1 0.7199,1.13827 0.9373,0.9055 0.961,-1.02896 0.037,-2.99988 0.9107,-4.42855 3.2331,-5.28509 0.9533,-0.35156 1.5222,-1.21874 1.2642,-1.92706 -0.2579,-0.70832 1.0207,-2.99154 2.8414,-5.07382 2.5225,-2.88506 3.7684,-3.61387 5.2358,-3.06277 1.6925,0.63571 1.7623,0.52246 0.5762,-0.93615 -1.1324,-1.39262 -1.1324,-1.87996 0,-3.03175 1.4424,-1.46708 4.9409,-5.66678 12.4938,-14.99773 4.0678,-5.02543 5.0558,-5.73366 7.281,-5.21961 1.9111,0.44148 2.1888,0.33912 1.0776,-0.39726 -1.6223,-1.07504 -0.3859,-2.4179 13.241,-14.38163 6.6544,-5.84229 8.2186,-6.60552 9.0936,-4.43712 0.3013,0.74674 0.5362,0.54543 0.5833,-0.5 0.043,-0.9625 0.979,-2.65 2.079,-3.75 2.113,-2.113022 3.5409,-2.684162 2.5,-1 -0.3399,0.55 -0.2175,1 0.272,1 0.4895,0 1.4917,-1.12433 2.2272,-2.498502 0.7354,-1.37417 1.5624,-2.27318 1.8378,-1.99781 0.2754,0.27538 1.4021,-0.2878 2.5037,-1.2515 1.1017,-0.9637 1.6742,-1.18968 1.2722,-0.50218 -1.299,2.22141 0.5397,1.32564 2.5657,-1.25 1.0816,-1.375 2.8339,-2.5 3.894,-2.5 1.06,0 1.9274,-0.63486 1.9274,-1.4108 0,-0.77593 2.0364,-2.39659 4.5253,-3.60145 3.5067,-1.69757 4.8395,-1.92987 5.9213,-1.03205 1.1273,0.93553 1.2994,0.78905 0.8941,-0.76084 -0.3326,-1.27192 0.1156,-2.11488 1.3287,-2.49879 1.0068,-0.31864 4.5306,-1.76943 7.8306,-3.22398 3.3,-1.45455 8.7351,-3.67878 12.078,-4.94275 5.5562,-2.10079 6.1737,-2.15778 7.1912,-0.66373 1.0168,1.49292 1.1183,1.49467 1.172,0.0202 0.036,-0.99585 1.8783,-2.2684 4.80877,-3.32218 2.6125,-0.93942 6.325,-2.29876 8.25,-3.02074 1.925,-0.72198 5.8816,-1.74045 8.7924,-2.26326 4.4483,-0.79895 5.4403,-0.69768 6.2196,0.63488 0.8211,1.40403 0.9307,1.38521 0.9576,-0.16456 0.017,-0.9625 0.6686,-1.75 1.4486,-1.75 0.78,0 2.2039,-0.30147 3.1641,-0.66994 1.1902,-0.45675 1.5157,-0.29765 1.0227,0.5 -1.0762,1.7413 0.9463,1.41556 2.4484,-0.39435 0.8593,-1.03544 2.1364,-1.35391 3.7775,-0.942 1.3637,0.34225 2.7471,0.19029 3.0742,-0.33768 0.3272,-0.52797 2.7324,-1.28016 5.34495,-1.67153 3.9981,-0.59895 4.75,-0.45618 4.75,0.90196 0,0.88745 0.4359,1.61354 0.9686,1.61354 0.5328,0 0.7096,-0.675 0.393,-1.5 -0.4077,-1.06259 0.1117,-1.52079 1.7814,-1.57128 1.2964,-0.0392 4.1176,-0.28431 6.2694,-0.54468 2.1518,-0.26037 4.6268,-0.17042 5.5,0.19988 2.2546,0.95612 6.1537,1.11808 6.6734,0.2772 0.2418,-0.39123 3.3922,-0.6943 7.0009,-0.67348 5.7471,0.0332 6.6682,0.30304 7.4239,2.17511 0.5833,1.44514 0.8832,1.62452 0.926,0.55392 0.043,-1.07306 1.0161,-1.58334 3.0194,-1.58334 1.6258,0 2.7948,0.2625 2.5978,0.58334 -0.197,0.32083 2.0488,0.64101 4.9906,0.71151 7.491,0.17951 10.764,1.12579 10.0779,2.91369 -0.3077,0.80197 -0.1236,1.45813 0.4091,1.45813 0.5327,0 0.9686,-0.72314 0.9686,-1.60699 0,-1.05452 0.5438,-1.39831 1.5818,-1 0.87,0.33385 2.2465,0.60699 3.059,0.60699 0.8253,0 1.1753,0.4885 0.7931,1.10693 -0.4765,0.77095 0.2769,0.89587 2.482,0.41155 2.0138,-0.44231 3.7124,-0.2419 4.6674,0.55069 1.0325,0.85689 1.824,0.92358 2.534,0.21353 1.4334,-1.43342 10.2813,2.00709 10.7163,4.16703 0.2245,1.11528 0.7146,1.35108 1.5,0.72172 0.7373,-0.59093 3.0056,-0.42222 6.1664,0.45864 2.75,0.76638 5.9526,1.61106 7.1169,1.87709 1.9513,0.44582 5.5256,1.8034 12.6787,4.8156 1.9165,0.80703 2.6535,1.72754 2.3436,2.92723 -0.5012,1.94055 0.9604,2.45107 1.5921,0.55609 0.4985,-1.49547 11.7459,3.7977 19.9074,9.36869 4.3148,2.94524 5.5988,4.35596 5.1225,5.62785 -0.5054,1.34944 -0.3411,1.47453 0.8016,0.61027 1.5434,-1.16745 6.359,0.60046 5.7502,2.11106 -0.1721,0.4272 0.7925,0.945432 2.1436,1.151632 1.3511,0.2062 2.7011,0.73386 3,1.17259 0.2989,0.43873 1.4308,1.12657 2.5154,1.52854 1.6532,0.61271 1.734,0.88134 0.5,1.66175 -1.1159,0.70567 -0.8015,0.9346 1.2994,0.9462 1.9793,0.0109 3.0979,0.73172 3.9134,2.52163 0.6281,1.37848 1.6659,2.39098 2.3063,2.25 1.9942,-0.43901 8.7528,6.16582 8.0864,7.90244 -0.4307,1.12233 -0.158,1.39424 0.9659,0.96296 3.3159,-1.27243 22.1401,18.43361 20.8414,21.81781 -0.4467,1.16406 -0.1733,1.41653 1.0328,0.95373 1.8594,-0.71353 5.0757,2.50276 10.5824,10.5823 1.925,2.82441 4.5262,6.34785 5.7805,7.82986 1.2542,1.48202 2.0837,3.4827 1.8432,4.44596 -0.2404,0.96326 -0.017,1.49143 0.4975,1.17372 0.5141,-0.31772 1.7813,0.46784 2.816,1.74568 1.0846,1.33942 1.471,2.57694 0.9124,2.92217 -0.5329,0.32936 0.2254,1.3814 1.6852,2.33787 1.7513,1.14749 2.4914,2.3611 2.1758,3.56785 -0.2963,1.13322 0.1432,1.99589 1.1556,2.26804 2.3032,0.61917 4.7205,8.74487 2.9379,9.87553 -0.911,0.5778 -0.622,0.83175 0.9585,0.84245 1.785,0.0121 2.7944,1.2176402 4.7817,5.7114602 1.3855,3.13288 2.3083,6.24564 2.0506,6.91724 -0.2578,0.6716 0.2065,1.48016 1.0316,1.79679 0.8252,0.31663 1.2017,1.05881 0.8367,1.64929 -0.3649,0.59048 -0.017,1.60616 0.7744,2.25706 0.7908,0.65091 2.3912,3.7596198 3.5564,6.9082398 1.9766,5.34105 2.0042,5.79145 0.4123,6.71959 -1.6061,0.9364 -1.6056,0.99661 0.01,1.02523 2.1713,0.0385 4.6614,4.23833 2.8674,4.83632 -0.8431,0.28105 -0.6796,0.98148 0.5449,2.33455 0.9621,1.06317 1.846,2.704 1.964,3.64629 0.1181,0.94229 0.6837,3.19933 1.257,5.01565 0.8365,2.65045 0.757,3.41189 -0.4029,3.85699 -0.7949,0.30502 -1.4452,0.94232 -1.4452,1.41621 0,0.4739 0.675,0.60261 1.5,0.28603 0.9293,-0.3566 1.5,0.005 1.5,0.94959 0,0.83886 0.3014,2.31083 0.6699,3.27104 0.4568,1.19028 0.2977,1.51574 -0.5,1.02277 -1.5962,-0.98654 -1.418,0.48306 0.3403,2.80666 0.8349,1.10326 1.1985,2.90052 0.8598,4.25 -0.3227,1.28607 -0.146,2.33831 0.3927,2.33831 1.5406,0 2.536,9.93509 1.1614,11.59142 -0.9259,1.11559 -0.8224,1.40858 0.4973,1.40858 0.9164,0 1.5614,0.5625 1.4332,1.25 -0.1282,0.6875 0.1158,5.59462 0.5423,10.90471 0.5207,6.48318 0.4177,10.32307 -0.3134,11.68931 -0.6517,1.21765 -0.7164,2.26485 -0.1611,2.60802 0.5103,0.31538 0.9108,3.525958 0.8899,7.134618 -0.033,5.7471 -0.303,6.66824 -2.1751,7.42389 -1.4451,0.58331 -1.6245,0.8832 -0.5539,0.92606 1.0731,0.043 1.5833,1.01604 1.5833,3.0194 0,1.62581 -0.393,2.7131 -0.8734,2.41621 -0.4804,-0.29689 -0.6385,0.51041 -0.3513,1.79399 0.2871,1.28359 0.1823,4.80879 -0.2331,7.83379 -0.5956,4.33851 -1.1198,5.47067 -2.482,5.36111 -0.9497,-0.0764 -1.7268,0.26111 -1.7268,0.75 0,0.48889 0.7231,0.88889 1.607,0.88889 1.0545,0 1.3983,0.5438 1,1.58179 -0.3339,0.86998 -0.607,2.24654 -0.607,3.05901 0,0.81248 -0.4432,1.20331 -0.985,0.86851 -0.6108,-0.37749 -0.7534,0.54884 -0.3755,2.4385 0.3714,1.85704 0.1087,3.65062 -0.6726,4.59209 -0.8382,1.00988 -0.9425,1.88456 -0.3012,2.52579 1.387,1.38705 -1.662,10.93431 -3.492,10.93431 -1.0659,0 -1.1446,0.33018 -0.3166,1.32784 1.0998,1.32523 0.6095,4.1942 -1.653,9.67216 -0.568,1.375 -2.4718,6.2125 -4.2308,10.75 -2.6152,6.74633 -3.5877,8.25279 -5.3357,8.26531 -1.4569,0.0104 -1.7359,0.2703 -0.8763,0.81603 1.5566,0.98812 0.6235,3.72293 -5.775,16.92635 -3.5372,7.29912 -4.8652,9.16781 -6.2774,8.83287 -1.3794,-0.32716 -1.652,0.0135 -1.186,1.48182 0.6004,1.89142 -1.706,6.41123 -2.7425,5.37469 -0.2971,-0.29712 -0.8307,0.61719 -1.1858,2.0318 -0.6139,2.44628 -4.5514,7.35011 -4.6338,5.77113 -0.022,-0.4125 -0.6748,0.7125 -1.4517,2.5 -0.7769,1.7875 -2.0672,3.25 -2.8672,3.25 -0.9252,0 -1.2779,0.67617 -0.9689,1.85767 0.695,2.65775 -5.8657,9.66611 -8.2075,8.76748 -1.455,-0.55833 -1.5416,-0.42175 -0.5162,0.81383 1.0187,1.22742 0.4808,2.31463 -3.1037,6.27289 -8.9699,9.90548 -16.2962,16.26551 -18.0893,15.70368 -1.218,-0.38161 -1.5797,-0.11887 -1.1997,0.87144 0.5717,1.48985 -9.4967,10.87273 -17.2977,16.11997 -3.3787,2.27262 -4.532,2.61134 -5.6713,1.66572 -1.1775,-0.97723 -1.3352,-0.82346 -0.8923,0.87017 0.3791,1.44971 0.061,2.05715 -1.0787,2.05715 -0.8891,0 -1.6166,0.49814 -1.6166,1.10699 0,0.60884 -0.6791,0.84642 -1.509,0.52794 -0.8847,-0.3395 -2.0185,0.23677 -2.7405,1.39301 -0.6774,1.08463 -2.2484,1.97206 -3.4911,1.97206 -1.4808,0 -2.2634,0.60307 -2.2709,1.75 -0.01,1.05385 -1.6261,2.52377 -4.0704,3.69512 -3.4744,1.66501 -4.1906,1.73701 -4.9732,0.5 -0.7329,-1.15834 -0.928,-1.04822 -0.9834,0.55488 -0.049,1.4176 -1.7751,2.83381 -5.9274,4.86335 -3.2221,1.57484 -6.3007,2.58992 -6.8414,2.25574 -0.5407,-0.33418 -1.2521,0.0933 -1.5809,0.95004 -0.3287,0.8567 -1.0543,1.27542 -1.6124,0.93049 -0.5581,-0.34492 -1.61,-0.0359 -2.3375,0.68662 -0.7275,0.72257 -3.9077,2.18577 -7.0672,3.25167 -4.9257,1.6616 -5.8741,1.7329 -6.6543,0.5 -0.7798,-1.2325 -0.912,-1.2223 -0.9251,0.072 -0.021,2.0315 -4.2684,4.7312 -4.8236,3.0656 -0.2775,-0.8323 -0.9885,-0.664 -2.3322,0.552 -1.0632,0.9622 -2.704,1.846 -3.6463,1.9641 -0.9423,0.118 -3.1993,0.6837 -5.0156,1.2569 -2.6505,0.8366 -3.4119,0.757 -3.857,-0.4029 -0.3055,-0.7949 -0.9428,-1.4452 -1.4167,-1.4452 -0.4739,0 -0.6246,0.6175 -0.335,1.3723 0.3461,0.902 -0.4358,1.5593 -2.2814,1.9177 -1.5444,0.2999 -2.9541,0.144 -3.1327,-0.3465 -0.1786,-0.4904 -1.3859,-0.1964 -2.6829,0.6535 -1.8265,1.1967 -2.8244,1.2957 -4.4253,0.4389 -1.634,-0.8745 -2.0671,-0.8116 -2.0671,0.3001 0,1.9044 -9.6218,3.2227 -11.5914,1.5881 -1.1091,-0.9204 -1.4086,-0.8372 -1.4086,0.3913 0,0.8582 -0.7875,1.5444 -1.75,1.5251 -0.9625,-0.019 -7.7125,0.2683 -15,0.6392 -11.6841,0.5948 -13.25,0.4881 -13.25,-0.9026 0,-0.8674 -0.45,-1.5771 -1,-1.5771 -0.55,0 -0.8875,0.508 -0.75,1.129 0.3212,1.4505 -1.914,1.5717 -11.75,0.6374 z m 6.3816,-10.5164 c -0.3056,-1.9352 0.2409,-2.3932 1.5545,-1.303 1.0471,0.869 1.9786,0.9014 3.4393,0.1197 1.1018,-0.5896 2.235,-0.6972 2.5181,-0.239 0.5904,0.9552 8.7821,0.7999 10.3951,-0.197 0.5903,-0.3648 1.2927,-0.3082 1.5609,0.1258 0.8152,1.319 16.9397,0.4418 19.3314,-1.0517 0.6495,-0.4056 1.4657,-0.2766 1.8138,0.2866 0.4079,0.66 1.1151,0.5417 1.9898,-0.333 1.4944,-1.4944 12.5258,-2.97538 15.0235,-2.0169 0.8656,0.3321 1.5021,0.2112 1.4145,-0.2688 -0.3593,-1.9679 0.1971,-2.27769 2.5109,-1.39801 1.5067,0.57287 2.5539,0.56702 2.75,-0.0154 0.4096,-1.21678 11.7816,-4.18674 13.5024,-3.52637 0.7322,0.28095 1.3142,-0.17227 1.3142,-1.02333 0,-0.8402 0.4698,-1.23729 1.044,-0.88242 0.5742,0.35487 2.1334,-0.0686 3.4648,-0.94098 1.3315,-0.87241 3.2242,-1.58788 4.206,-1.58994 0.9819,-0.002 3.2586,-0.90205 5.0594,-2 1.8008,-1.09794 4.1367,-1.99626 5.191,-1.99626 1.0542,0 2.1949,-0.45 2.5348,-1 0.906,-1.46593 2.7468,-1.22343 1.8978,0.25 -0.3962,0.6875 0.3938,0.2375 1.7554,-1 1.3617,-1.2375 3.2656,-2.25 4.2311,-2.25 0.9655,0 3.6917,-1.33224 6.0584,-2.96053 2.3666,-1.62829 4.5852,-2.67829 4.9301,-2.33333 0.345,0.345 0.6272,-0.23854 0.6272,-1.29672 0,-2.46258 8.018,-7.40938 12.0094,-7.40938 2.1917,0 2.7831,-0.37715 2.3523,-1.5 -0.3524,-0.91821 1e-4,-1.5 0.9089,-1.5 0.8165,0 2.0447,-0.675 2.7294,-1.5 0.6847,-0.825 2.0898,-1.5 3.1225,-1.5 1.0326,0 1.8775,-0.675 1.8775,-1.5 0,-0.825 0.6592,-1.5 1.4648,-1.5 0.8057,0 1.9465,-0.9 2.5352,-2 0.5887,-1.1 1.7192,-2 2.5122,-2 0.7929,0 2.1508,-1.08216 3.0174,-2.4048 0.8666,-1.32264 2.6954,-2.68584 4.064,-3.02932 1.3685,-0.34348 2.2183,-1.06132 1.8883,-1.5952 -0.3299,-0.53387 -0.1016,-0.97068 0.5074,-0.97068 0.609,0 1.7429,-1.4625 2.5199,-3.25 0.7769,-1.7875 1.4302,-2.72963 1.4517,-2.09362 0.022,0.64466 0.8935,0.93295 1.9699,0.65146 1.1481,-0.30022 1.7128,-1.07308 1.393,-1.90638 -0.3279,-0.85468 0.1091,-1.40146 1.1203,-1.40146 0.9335,0 2.2659,-1.45497 3.0492,-3.32961 0.7651,-1.83128 2.2047,-3.96102 3.1989,-4.73276 1.4945,-1.15996 1.4612,-0.97582 -0.1922,1.06237 -2,2.46553 -2,2.46553 0,0.98277 2.6307,-1.95036 3.4818,-3.20324 2.8597,-4.2098 -0.2796,-0.45239 -0.1374,-0.75808 0.316,-0.67933 2.0042,0.34817 3.3243,-0.18946 3.3243,-1.35386 0,-0.69312 1.125,-2.47348 2.5,-3.95635 1.375,-1.48288 2.5,-3.21393 2.5,-3.84677 0,-0.63285 0.5849,-0.92618 1.2998,-0.65185 0.9058,0.34757 1.2392,-0.37709 1.0998,-2.39035 -0.11,-1.58903 0.1541,-2.67029 0.5869,-2.40281 0.4328,0.26748 1.343,-0.18372 2.0227,-1.00266 0.6796,-0.81894 1.8822,-1.48899 2.6723,-1.48899 0.7901,0 1.1539,-0.45734 0.8084,-1.01631 -0.3454,-0.55897 -1.1023,-0.72321 -1.682,-0.36498 -0.5796,0.35824 1.2926,-2.33442 4.1604,-5.98369 2.8679,-3.64926 5.7357,-6.64191 6.373,-6.65033 0.7698,-0.0102 0.7232,-0.29158 -0.1386,-0.83827 -1.0362,-0.65732 -0.9859,-1.08143 0.25,-2.10714 0.851,-0.70629 1.5473,-1.87855 1.5473,-2.60502 0,-0.72647 0.9854,-2.01102 2.1897,-2.85456 1.2043,-0.84353 1.9009,-1.82246 1.548,-2.1754 -0.7981,-0.79803 6.1965,-14.45858 8.2552,-16.1225 1.2005,-0.97037 1.2279,-1.22466 0.1347,-1.25 -1.0582,-0.0245 -1.1082,-0.35022 -0.2183,-1.42243 0.6347,-0.76485 1.2523,-2.73193 1.3724,-4.37129 0.1295,-1.76804 0.6857,-2.80187 1.3672,-2.5412 0.6318,0.24171 1.4459,-0.0412 1.809,-0.62871 0.3631,-0.58749 0.2481,-1.06817 -0.2555,-1.06817 -0.7374,0 2.5925,-10.97199 5.4627,-18 0.3369,-0.825 0.7029,-2.175 0.8133,-3 0.508,-3.79731 1.7431,-8 2.3511,-8 0.3688,0 0.7036,-1.2375 0.7439,-2.75 0.04,-1.5125 0.4208,-4.775 0.8455,-7.25 0.4246,-2.475 1.0014,-6.1875 1.2816,-8.25 0.2803,-2.0625 0.9674,-3.75 1.527,-3.75 0.6652,0 0.6488,-0.44417 -0.047,-1.2831 -0.7253,-0.87398 -0.7582,-2.64811 -0.103,-5.56406 0.529,-2.35452 0.7016,-4.70212 0.3834,-5.21689 -0.3181,-0.51477 -0.2144,-0.93589 0.2306,-0.93582 1.1373,1.9e-4 1.014,-9.35265 -0.1341,-10.17852 -0.5853,-0.42098 -0.5507,-1.559288 0.091,-2.999998 1.1596,-2.60254 1.1291,-15.75478 -0.041,-17.6481 -0.4161,-0.67324 -0.6288,-2.99353 -0.4727,-5.1562 0.1562,-2.16266 0,-4.21455 -0.3437,-4.55974 -0.3452,-0.34519 -0.4222,-1.76015 -0.1712,-3.14434 0.251,-1.38419 -0.019,-3.08889 -0.5989,-3.78822 -0.5804,-0.69933 -0.7744,-2.00355 -0.431,-2.89826 0.3683,-0.95985 0.1191,-1.62675 -0.6078,-1.62675 -0.8428,0 -1.0373,-0.97353 -0.6156,-3.08186 0.339,-1.69503 0.1889,-3.88058 -0.3335,-4.85679 -0.5225,-0.9762 -1.1203,-3.75695 -1.3285,-6.17943 -0.2082,-2.42248 -0.9177,-5.41192 -1.5766,-6.64321 -0.659,-1.23129 -0.9684,-2.23871 -0.6877,-2.23871 0.2807,0 0.03,-1.2375 -0.5568,-2.75 -0.587,-1.5125 -1.2775,-3.86102 -1.5345,-5.21894 -0.257,-1.35792 -0.8867,-2.97432 -1.3994,-3.59201 -0.5126,-0.61769 -0.6468,-1.40829 -0.2982,-1.75689 0.3486,-0.34861 0.1783,-1.2072 -0.3784,-1.90799 -0.5566,-0.7008 -1.5732,-3.07417 -2.2589,-5.27417 -0.6858,-2.2 -2.5741,-6.9249998 -4.1963,-10.4999998 -1.6222,-3.575 -3.7073,-8.18234 -4.6335,-10.23853 -0.9262,-2.05619 -2.0216,-3.74369 -2.4341,-3.75 -0.4125,-0.006 -0.75,-0.82662 -0.75,-1.8229102 0,-0.99629 -0.7875,-2.70136 -1.75,-3.78904 -1.7227,-1.94684 -2.4661,-3.731 -2.5438,-6.10553 -0.022,-0.66331 -0.3419,-1.01911 -0.7116,-0.79067 -0.7613,0.47057 -5.5767,-7.59831 -5.2237,-8.75332 0.126,-0.4125 -0.1656,-0.75 -0.648,-0.75 -0.7541,0 -11.1229,-13.41887 -11.1229,-14.39486 0,-1.12477 -7.7913,-8.61691 -9.0219,-8.67543 -0.957,-0.0455 -0.773,-0.37328 0.5219,-0.92971 1.2171,-0.52299 1.4381,-0.88694 0.5645,-0.92971 -1.713,-0.0839 -6.0407,-3.96855 -6.1213,-5.49461 -0.031,-0.59162 -2.7312,-3.24904 -6,-5.90537 -3.2687,-2.65633 -5.9432,-5.54382 -5.9432,-6.41666 0,-0.87284 -0.2805,-1.30644 -0.6234,-0.96356 -0.896,0.89596 -7.3766,-4.26756 -7.3766,-5.87739 0,-0.74246 -0.5625,-1.14739 -1.25,-0.89985 -0.6875,0.24753 -2.9872,-1.11659 -5.1104,-3.03139 -2.1232,-1.9148 -4.1759,-3.48145 -4.5614,-3.48145 -0.3856,0 -1.6226,-0.85857 -2.749,-1.90793 -2.3066,-2.14898 -10.4494,-6.59749 -11.5432,-6.30621 -0.3927,0.10458 -0.4335,-0.59196 -0.091,-1.54786 0.3429,-0.9559 0.2576,-1.40647 -0.1894,-1.00126 -0.447,0.40521 -2.3105,-0.18892 -4.1411,-1.32029 -1.8306,-1.131362 -3.8561,-1.730872 -4.5011,-1.332232 -0.7331,0.45308 -0.9052,0.29199 -0.4592,-0.42972 0.6732,-1.08924 -0.6717,-1.64006 -2.9045,-1.18959 -0.55,0.11096 -0.6778,-0.12049 -0.2839,-0.51433 1.0725,-1.07255 -3.0752,-3.90629 -8.7161,-5.95492 -2.75,-0.99871 -5.4945,-2.41181 -6.0989,-3.14021 -0.6044,-0.72839 -1.3608,-1.0624 -1.681,-0.74223 -0.531,0.531 -10.6567,-2.83794 -13.137,-4.37084 -0.5764,-0.35623 -1.8847,-0.70934 -2.9074,-0.78468 -1.0227,-0.0753 -2.2178,-0.7168 -2.6558,-1.42546 -0.438,-0.70865 -1.2633,-0.99984 -1.8341,-0.64708 -0.5708,0.35276 -3.1537,-0.077 -5.7399,-0.95502 -2.5861,-0.87803 -5.545,-1.37596 -6.5754,-1.10653 -1.0303,0.26943 -1.6608,0.14618 -1.4012,-0.2739 0.2596,-0.42007 -2.3273,-1.25345 -5.7486,-1.85195 -3.4214,-0.59849 -10.0375,-1.78514 -14.7025,-2.63698 -13.6186,-2.48683 -43.4404,-4.04892 -42.3059,-2.21603 0.2876,0.46461 -2.1884,0.68961 -5.5021,0.5 -3.3137,-0.18961 -5.8467,-0.0585 -5.6289,0.29144 0.3534,0.56775 -6.46825,1.76626 -13.74675,2.41522 -1.466,0.13071 -4.166,0.73181 -6,1.33579 -1.834,0.60398 -4.6846,1.18306 -6.3346,1.28684 -1.65,0.10379 -3.45,0.47262 -4,0.81964 -0.55,0.34701 -4.6,1.66988 -9,2.93969 -4.4,1.26982 -8.89997,2.68411 -9.99997,3.14287 -8.2347,3.43435 -9.3969,3.74052 -9.8629,2.59842 -0.2822,-0.69168 -0.5117,-0.53772 -0.5582,0.37446 -0.087,1.70872 -6.475,4.44214 -8.0731,3.45449 -0.5532,-0.3419 -1.0284,-0.0326 -1.056,0.68738 -0.055,1.427 -10.6224,6.80901 -13.3696,6.80901 -0.934,0 -1.465,0.37742 -1.1799,0.83871 0.4845,0.78395 -6.9722,5.610752 -7.6623,4.959912 -0.1741,-0.16424 -1.6776,1.05138 -3.3409,2.70138 -3.0957,3.07087 -6.888,5.59776 -11.4986,7.66178 -1.4309,0.64054 -3.4381,2.40922 -4.4604,3.9304 -1.0224,1.52117 -2.1548,2.58293 -2.5163,2.35946 -0.3616,-0.22348 -3.1294,1.98787 -6.1506,4.9141 -3.0213,2.92624 -7.0225,6.48687 -8.8916,7.91253 -1.8692,1.42565 -4.7442,4.41304 -6.389,6.63863 -1.6448,2.22559 -3.5531,3.84387 -4.2406,3.59619 -0.6946,-0.25025 -1.25,0.32531 -1.25,1.29542 0,0.96016 -2.475,4.32151 -5.5,7.46966 -3.025,3.14816 -5.5,6.39845 -5.5,7.22287 0,0.82442 -0.7231,1.49895 -1.607,1.49895 -0.9501,0 -1.392,0.56021 -1.0811,1.37051 0.4348,1.13305 -4.0262,7.82767 -6.4167,9.62949 -1.214,0.91504 -4.8952,8.0393 -4.8952,9.47371 0,0.77709 -0.8644,2.01833 -1.9209,2.75832 -1.105,0.77399 -2.0607,2.81555 -2.25,4.80671 -0.2127,2.2366802 -0.8598,3.4773402 -1.8291,3.5067102 -0.825,0.025 -1.3833,0.60003 -1.2407,1.27783 0.1426,0.6778 -0.4199,1.49299 -1.25,1.81153 -0.8301,0.31854 -1.5093,1.43102 -1.5093,2.47218 0,1.04115 -0.525,1.89300998 -1.1667,1.89300998 -0.6416,0 -0.865,0.30158 -0.4965,0.67017 0.3686,0.3686 0.062,1.60610002 -0.6817,2.75000002 -0.7435,1.14391 -1.9287,3.87983 -2.6338,6.07983 -0.7051,2.1999998 -1.7374,4.5733698 -2.2941,5.2741698 -0.5567,0.70079 -0.7625,1.52385 -0.4573,1.82903 1.1349,1.13491 -2.4552,9.39669 -4.1139,9.46709 -1.3088,0.0555 -1.2366,0.25048 0.344,0.92971 1.1,0.47269 1.4109,0.89106 0.691,0.92971 -0.72,0.0387 -1.0309,0.52029 -0.691,1.07029 0.3399,0.55 0.089,1 -0.5576,1 -0.6867,0 -0.9562,0.83905 -0.648,2.01759 0.2901,1.10968 -0.1395,2.68468 -0.9548,3.5 -0.8154,0.81533 -1.0003,1.48241 -0.411,1.48241 0.5893,0 1.0714,0.47656 1.0714,1.05902 0,0.58246 -0.45,0.7809 -1,0.44098 -1.0019,-0.61923 -1.4656,1.35537 -1.1466,4.88329 0.094,1.0358 -0.3038,2.45454 -0.8833,3.15275 -0.7543,0.90887 -0.6866,1.39762 0.2382,1.72061 0.9672,0.33781 0.8274,0.97449 -0.5563,2.53424 -1.0452,1.17819 -1.521,2.61197 -1.0954,3.30061 0.512,0.82858 0.3337,0.95876 -0.5582,0.40752 -1.0124,-0.6257 -1.1736,-0.12519 -0.7087,2.19966 0.3469,1.73438 0.1165,3.49517 -0.5439,4.15549 -0.8611,0.86111 -0.8329,1.14583 0.1132,1.14583 0.6925,0 1.027,0.37537 0.7435,0.83416 -0.2835,0.45878 -0.7831,2.35288 -1.1101,4.20911 -0.327,1.85622 -1.0767,3.95585 -1.6659,4.66584 -0.767,0.92412 -0.7525,1.29089 0.051,1.29089 1.4503,0 1.4629,3.6715 0.016,4.56598 -0.7795,0.48171 -0.7245,0.92027 0.1857,1.4828 0.9284,0.57383 0.9947,1.17229 0.2351,2.125 -0.5815,0.72942 -0.9298,2.11372 -0.7741,3.07622 0.1575,0.97384 -0.343,1.75 -1.1285,1.75 -0.7763,0 -1.4115,0.49814 -1.4115,1.10699 0,0.60884 0.6352,0.86326 1.4115,0.56536 1.1256,-0.43194 1.241,0.0526 0.5698,2.39302 -0.4906,1.71042 -0.4626,2.93463 0.067,2.93463 0.4997,0 0.8204,2.025 0.7127,4.5 -0.1077,2.475 -0.548,4.499998 -0.9784,4.499998 -0.4304,0 -0.7825,0.70156 -0.7825,1.55902 0,0.85746 0.45,1.2809 1,0.94098 0.6039,-0.37325 1,0.98962 1,3.44098 0,2.56359 -0.4605,4.07074 -1.25,4.09082 -0.7909,0.0201 -0.6355,0.49904 0.4231,1.30401 1.2305,0.9357 1.7697,3.24255 2.0384,8.72125 0.2009,4.09698 0.7253,8.03172 1.1655,8.74388 0.4401,0.71216 0.5495,1.94828 0.243,2.74695 -0.3065,0.79866 -0.2129,1.45211 0.2079,1.45211 0.4208,0 0.7188,1.2375 0.6622,2.75 -0.057,1.5125 0.3104,3.30677 0.8154,3.98727 0.505,0.68049 0.6713,1.88075 0.3695,2.66724 -0.3018,0.78648 -0.014,1.63511 0.6392,1.88583 1.2769,0.48998 1.4812,5.6137 0.3,7.52483 -0.4849,0.78463 -0.1609,0.9481 0.9979,0.50344 1.1334,-0.43491 1.4797,-0.2762 1.0201,0.46743 -0.3827,0.61926 -0.045,2.68403 0.7509,4.58838 0.7957,1.90435 1.185,3.72416 0.8651,4.04402 -0.3198,0.31986 -0.1128,0.58156 0.4601,0.58156 0.573,0 1.0417,1.15319 1.0417,2.56264 0,1.40945 0.9078,4.44695 2.0173,6.75 1.1094,2.30305 2.7817,6.43736 3.716,9.18736 2.2105,6.5059 5.7787,13.5 6.8874,13.5 0.4808,0 0.314,0.675 -0.3707,1.5 -1.0115,1.21882 -0.9665,1.5 0.2403,1.5 1.4117,0 7.7597,11.39722 7.7597,13.93173 0,0.65247 0.4176,0.92821 0.928,0.61277 1.1228,-0.6939 2.4532,3.02975 1.5846,4.4351 -0.3403,0.55057 0,0.7598 0.766,0.46698 1.5218,-0.58397 8.7214,9.40228 8.7214,12.09705 0,0.86592 0.3816,1.33856 0.848,1.05031 0.4664,-0.28826 2.1539,1.12638 3.75,3.14364 5.3927,6.81561 10.6675,12.75808 12.0385,13.56211 0.7499,0.43983 1.3635,1.34408 1.3635,2.00945 0,0.66537 0.9,1.77183 2,2.45879 1.1,0.68696 2,1.9202 2,2.74054 0,0.82034 0.6526,1.49153 1.4503,1.49153 0.7977,0 1.8102,0.60931 2.25,1.35402 0.4398,0.7447 1.8471,1.90422 3.1273,2.57669 1.4779,0.77638 2.1126,1.78284 1.7386,2.75732 -0.4085,1.0646 -0.1358,1.36078 0.8904,0.96698 0.8137,-0.31221 1.7453,-0.13732 2.0704,0.38866 0.8879,1.43665 2.7035,1.15178 1.8717,-0.29367 -0.3956,-0.6875 -0.3847,-0.95 0.024,-0.58333 0.409,0.36666 0.7444,1.04166 0.7454,1.5 0,1.55169 2.0519,3.31518 3.0994,2.66781 0.6287,-0.38857 0.739,-0.15446 0.2783,0.59093 -0.464,0.75071 0.063,1.81311 1.3455,2.71121 1.1596,0.81223 2.1084,2.11215 2.1084,2.8887 0,0.84419 0.6031,1.18046 1.5,0.83631 0.825,-0.31659 1.5,-0.0775 1.5,0.53138 0,0.60885 0.9096,1.10699 2.0214,1.10699 1.1682,0 2.4871,1.02188 3.1245,2.42086 0.649,1.42441 1.6692,2.20359 2.4785,1.89301 0.7566,-0.29032 1.3756,-0.06 1.3756,0.51175 0,0.57178 1.0125,1.35558 2.25,1.74177 1.2375,0.3862 2.5711,1.20402 2.9635,1.81739 0.3924,0.61337 1.1799,1.17147 1.75,1.24022 0.5701,0.0688 1.4562,0.18125 1.9691,0.25 0.5129,0.0688 1.211,1.00204 1.5512,2.07397 0.3743,1.17921 1.1908,1.72939 2.0674,1.39301 0.7968,-0.30578 1.4488,-0.11241 1.4488,0.42971 0,0.54212 1.4625,1.58762 3.25,2.32333 1.7875,0.73572 4.0225,2.25281 4.9667,3.37132 1.1911,1.41098 1.7269,1.60347 1.75,0.62867 0.026,-1.11954 0.4048,-1.06874 1.862,0.25 1.0058,0.91025 2.8058,1.65499 4,1.65499 1.1942,0 2.1713,0.45 2.1713,1 0,0.55 0.675,1 1.5,1 0.825,0 1.5,0.45 1.5,1 0,0.55 0.8449,1 1.8775,1 1.0327,0 2.4337,0.67005 3.1133,1.48899 0.6797,0.81894 1.588,1.27133 2.0184,1.00531 0.4305,-0.26603 2.067,0.18615 3.6367,1.00485 1.5698,0.81869 3.6416,1.4913 4.6041,1.49469 0.9625,0.003 1.74997,0.48272 1.74997,1.06518 0,0.58246 0.4526,0.77928 1.0058,0.43738 1.6133,-0.99708 7.9927,1.75434 8.0095,3.45449 0.012,1.18946 0.2054,1.24949 0.8341,0.25857 0.6499,-1.02432 1.8328,-1.05605 5.7347,-0.15383 2.7037,0.62519 6.1534,1.7475 7.6659,2.49403 1.5125,0.74652 2.75,0.95651 2.75,0.4667 0,-1.34936 7.2558,0.0421 9.25,1.77391 1.0041,0.8719 1.75,1.0542 1.75,0.4276 0,-1.2311 7.14915,-0.4373 8.03115,0.8916 0.2922,0.4402 1.9313,0.6231 3.6425,0.4065 1.7198,-0.2176 3.9421,0.2355 4.9689,1.0133 2.1776,1.6496 2.3969,1.7202 2.2391,0.7207 z M 611.53178,119.9473 c 0.048,-1.16495 0.2849,-1.4019 0.6041,-0.60417 0.2889,0.72187 0.2534,1.58438 -0.079,1.91667 -0.3323,0.33229 -0.5686,-0.25834 -0.5252,-1.3125 z m 18.921,-120.80967782 c 0,-0.21615998 0.6984,-0.66099998 1.5519,-0.98854998 0.89,-0.34149 1.2914,-0.17385 0.941,0.39301 -0.5872,0.95020998 -2.4929,1.40544998 -2.4929,0.59553998 z M 1019.0171,-11.176238 c -0.5427,-1.4252 -0.4278,-1.54006 0.5598,-0.5598 0.6834,0.67834 0.9907,1.48524 0.6828,1.7931302 -0.3079,0.30789 -0.8671,-0.2471102 -1.2426,-1.2333302 z M 628.45278,196.53063 c 0,-0.55 -0.1984,-1 -0.441,-1 -0.2425,0 -0.7191,0.45 -1.059,1 -0.3399,0.55 -0.1415,1 0.441,1 0.5824,0 1.059,-0.45 1.059,-1 z M 886.9528,331.5306 c 0.3399,-0.55 0.1415,-1 -0.441,-1 -0.5824,0 -1.059,0.45 -1.059,1 0,0.55 0.1985,1 0.441,1 0.2425,0 0.7191,-0.45 1.059,-1 z M 595.45278,159.53063 c 0,-0.55 -0.4766,-1 -1.059,-1 -0.5825,0 -0.7809,0.45 -0.441,1 0.3399,0.55 0.8165,1 1.059,1 0.2426,0 0.441,-0.45 0.441,-1 z m -11.921,-58.58333 c 0.048,-1.164948 0.2849,-1.401898 0.6041,-0.60417 0.2889,0.72187 0.2534,1.58438 -0.079,1.91667 -0.3323,0.33229 -0.5686,-0.25834 -0.5252,-1.3125 z"
             id="path23367"
             inkscape:connector-curvature="0" />
        </g>
      </g>
    </g>
  </g>
</svg>
